<?xml version="1.0" encoding="UTF-8" standalone="no"?>
<svg
   xmlns:dc="http://purl.org/dc/elements/1.1/"
   xmlns:cc="http://creativecommons.org/ns#"
   xmlns:rdf="http://www.w3.org/1999/02/22-rdf-syntax-ns#"
   xmlns:svg="http://www.w3.org/2000/svg"
   xmlns="http://www.w3.org/2000/svg"
   xmlns:sodipodi="http://sodipodi.sourceforge.net/DTD/sodipodi-0.dtd"
   xmlns:inkscape="http://www.inkscape.org/namespaces/inkscape"
   inkscape:version="1.0 (4035a4fb49, 2020-05-01)"
   sodipodi:docname="android-hand-drawn-logo-outline.svg"
   id="svg3"
   version="1.1"
   fill="currentColor"
   height="91"
   width="82"
   viewBox="0 0 82 91">
  <metadata
     id="metadata9">
    <rdf:RDF>
      <cc:Work
         rdf:about="">
        <dc:format>image/svg+xml</dc:format>
        <dc:type
           rdf:resource="http://purl.org/dc/dcmitype/StillImage" />
      </cc:Work>
    </rdf:RDF>
  </metadata>
  <defs
     id="defs7" />
  <sodipodi:namedview
     inkscape:current-layer="svg3"
     inkscape:window-maximized="1"
     inkscape:window-y="0"
     inkscape:window-x="0"
     inkscape:cy="45.5"
     inkscape:cx="41"
     inkscape:zoom="7.8571429"
     showgrid="false"
     id="namedview5"
     inkscape:window-height="1011"
     inkscape:window-width="1920"
     inkscape:pageshadow="2"
     inkscape:pageopacity="0"
     guidetolerance="10"
     gridtolerance="10"
     objecttolerance="10"
     borderopacity="1"
     bordercolor="#666666"
     pagecolor="#ffffff" />
  <g
     id="g835">
    <path
       style="fill:#e32525;fill-opacity:1"
       fill="currentColor"
       id="Forma 1"
       class="shp0"
       d="M59.03 8.38C60.3 7.16 61.52 5.9 62.64 4.54C63.34 3.71 63.47 2.55 62.64 1.72C61.93 1.01 60.5 0.89 59.8 1.72C58.59 3.18 57.27 4.54 55.9 5.84C51.58 2.93 46.21 1.47 39.88 2.05C36.14 2.4 32.62 3.5 29.49 5.19C28.5 3.92 27.57 2.61 26.64 1.3C26.01 0.41 24.89 0 23.89 0.58C23.01 1.1 22.54 2.42 23.17 3.31C24.13 4.68 25.12 6.02 26.14 7.35C25.68 6.75 19.72 14.26 19.29 14.99C18.03 17.13 13.83 25.35 16.44 27.38C17.55 28.24 19.77 27.63 21.11 27.64C23.21 27.65 25.31 27.72 27.41 27.77C31.71 27.88 36.01 28.03 40.31 28.16C48.79 28.41 57.26 28.64 65.74 28.57C66.78 28.56 67.39 27.92 67.6 27.16C67.84 26.76 67.96 26.28 67.85 25.71C66.5 18.78 63.51 12.67 59.03 8.38ZM20.19 23.63C21.96 14.08 30.15 7.33 39.88 6.04C52.74 4.34 60.6 13.33 63.48 24.58C49.04 24.6 34.62 23.87 20.19 23.63ZM65.74 30.56C50.01 30.56 34.28 30.4 18.55 30.4C17.47 30.4 16.85 31.08 16.67 31.89C16.41 32.19 16.24 32.58 16.21 33.06C15.45 43.02 15.97 53.01 15.54 62.98C15.53 63.16 15.54 63.33 15.58 63.48C15.58 63.6 15.58 63.72 15.61 63.84C16.52 68.58 20.42 71.5 25.21 71.19C24.52 71.23 25.25 82.93 25.33 83.66C25.59 86.22 26.22 89.1 28.88 90.17C31.95 91.41 35.58 89.68 37.59 87.36C41.21 83.18 40.89 76.85 40.58 71.7C41.57 71.66 42.57 71.65 43.56 71.64C42.87 71.64 43.02 82.7 43.26 83.77C44.31 88.58 48.92 92 53.72 90.17C58.39 88.38 59.43 83.97 59.22 79.48C59.1 76.94 59.03 74.32 58.73 71.8C60.31 71.66 61.85 71.22 63.15 70.28C65.34 68.69 66.17 66.24 66.41 63.65C66.42 63.54 66.41 63.43 66.41 63.32C67.22 53.3 67.55 43.27 67.58 33.23C67.94 32.07 67.33 30.56 65.74 30.56ZM62.4 63.31C62.39 63.42 62.4 63.52 62.4 63.62C62.4 63.63 62.4 63.63 62.4 63.65C62.07 67.21 59.45 68.09 56.2 67.8C54.38 67.64 53.86 69.58 54.61 70.82C55.3 76.24 57.57 85.34 50.74 86.9C44.11 84.85 47.57 74.9 47.67 69.8C47.7 68.3 46.35 67.68 45.21 67.93C43.34 68.33 40.78 67.64 38.8 67.8C38.65 67.82 38.51 67.84 38.38 67.87C37.37 67.87 36.39 68.5 36.46 69.8C36.71 74.57 38.84 85.69 31.77 86.42C31.71 86.43 31.66 86.45 31.6 86.46C26.45 83.77 29.38 73.54 29.26 68.97C29.22 67.74 28.29 67.1 27.33 67.05C27.09 67 26.83 66.99 26.55 67.04C25.02 67.31 23.31 67.44 21.87 66.75C20.4 66.05 19.85 64.55 19.54 63.07C19.54 63.04 19.55 63.01 19.55 62.98C19.96 53.45 19.52 43.91 20.14 34.39C34.61 34.41 49.08 34.53 63.55 34.55C63.5 44.15 63.17 53.74 62.4 63.31ZM80.56 28.38C80.4 28.17 80.21 27.99 79.98 27.84C78.78 27.1 77.37 26.79 75.98 26.89C75.76 26.81 75.53 26.75 75.28 26.74C72.28 26.58 69.84 28.39 69.33 31.36C69.3 31.53 69.29 31.69 69.3 31.86C69.17 32.1 69.1 32.39 69.09 32.72C68.94 40.44 68.97 48.14 69.59 55.83C69.59 55.85 69.6 55.87 69.6 55.89C69.6 55.98 69.59 56.07 69.59 56.17C69.73 58.28 70.35 60.31 72.15 61.61C73.76 62.76 75.79 62.76 77.66 62.44C77.71 62.43 77.76 62.42 77.81 62.41C77.81 62.41 77.82 62.41 77.82 62.41C77.83 62.41 77.83 62.41 77.83 62.41C78.05 62.37 78.26 62.31 78.47 62.21C80.42 61.29 81.63 59.41 82.07 57.36C82.1 57.22 82.12 57.08 82.12 56.95C82.13 56.91 82.14 56.87 82.14 56.83C82.89 47.68 84 38.1 81.07 29.2C80.95 28.86 80.78 28.59 80.56 28.38ZM78.29 55.36C78.24 55.67 78.16 56.03 78.06 56.41C77.76 57.48 77.19 58.63 76.02 58.65C71.57 58.72 73.17 41.46 73.07 38.56C73 36.6 72.21 32.78 73.85 31.21C78.11 27.13 78.74 38.14 78.84 39.74C79.15 44.74 79.19 50.41 78.29 55.36ZM4.3 28.28C0 30.19 0.37 34.88 0.34 38.81C0.29 44.82 0.48 50.84 0.93 56.83C0.93 56.85 0.94 56.87 0.94 56.89C0.94 56.98 0.92 57.07 0.93 57.16C1.42 64.77 11.72 66.18 13.41 58.36C13.44 58.22 13.46 58.08 13.46 57.95C13.47 57.91 13.48 57.87 13.48 57.83C14.23 48.67 15.33 39.1 12.41 30.2C11.23 26.63 6.97 27.1 4.3 28.28ZM9.5 57.44C9.43 57.74 9.35 58.03 9.25 58.32C9.24 58.35 9.22 58.38 9.2 58.42C9.12 58.6 9.01 58.77 8.9 58.94C8.76 59.14 8.75 59.16 8.85 59.01C8.73 59.15 8.6 59.27 8.46 59.39C8.43 59.41 8.39 59.43 8.34 59.47C8.29 59.5 8.23 59.52 8.18 59.55C8.15 59.56 8.12 59.56 8.1 59.56C7.14 59.74 6.36 59.7 5.7 59.29C5.28 59.03 5 57.98 4.95 57.16C4.95 57.15 4.94 57.14 4.94 57.13C4.95 57.03 4.96 56.94 4.95 56.83C4.46 50.91 4.6 45.03 4.41 39.1C4.35 37.25 3.57 33.53 5.26 32.12C9.69 28.43 10.09 39.25 10.21 40.98C10.57 46.47 9.96 51.97 9.5 57.44ZM30.6 14.27C28.01 14.27 28.01 18.26 30.6 18.26C33.19 18.26 33.19 14.27 30.6 14.27ZM53.53 14.11C50.93 14.11 50.93 18.1 53.53 18.1C56.12 18.1 56.12 14.11 53.53 14.11Z" />
  </g>
</svg>
