<?xml version="1.0" encoding="UTF-8" standalone="no"?>
<svg
   xmlns:dc="http://purl.org/dc/elements/1.1/"
   xmlns:cc="http://creativecommons.org/ns#"
   xmlns:rdf="http://www.w3.org/1999/02/22-rdf-syntax-ns#"
   xmlns:svg="http://www.w3.org/2000/svg"
   xmlns="http://www.w3.org/2000/svg"
   xmlns:sodipodi="http://sodipodi.sourceforge.net/DTD/sodipodi-0.dtd"
   xmlns:inkscape="http://www.inkscape.org/namespaces/inkscape"
   inkscape:version="1.0 (4035a4fb49, 2020-05-01)"
   sodipodi:docname="avatar.svg"
   id="svg5"
   version="1.1"
   height="612"
   width="570"
   viewBox="0 0 570 612">
  <metadata
     id="metadata11">
    <rdf:RDF>
      <cc:Work
         rdf:about="">
        <dc:format>image/svg+xml</dc:format>
        <dc:type
           rdf:resource="http://purl.org/dc/dcmitype/StillImage" />
      </cc:Work>
    </rdf:RDF>
  </metadata>
  <defs
     id="defs9" />
  <sodipodi:namedview
     inkscape:current-layer="svg5"
     inkscape:window-maximized="1"
     inkscape:window-y="0"
     inkscape:window-x="0"
     inkscape:cy="306"
     inkscape:cx="285"
     inkscape:zoom="1.1683007"
     showgrid="false"
     id="namedview7"
     inkscape:window-height="1011"
     inkscape:window-width="1920"
     inkscape:pageshadow="2"
     inkscape:pageopacity="0"
     guidetolerance="10"
     gridtolerance="10"
     objecttolerance="10"
     borderopacity="1"
     bordercolor="#666666"
     pagecolor="#ffffff" />
  <style
     id="style2">
		tspan { white-space:pre }
		.shp0 { fill: #000000 } 
	</style>
  <path
     style="fill:#c11717;fill-opacity:1"
     d="M506.38 440.98L409.61 416.85C409.25 416.31 408.86 415.78 408.38 415.31L379.56 386.49L379.56 358.9C381.96 356.46 384.31 353.93 386.59 351.3C413.49 320.25 429.66 278.43 432.13 233.54C432.22 231.74 432.32 229.94 432.41 228.14C432.71 222.2 432.99 216.59 433.56 210.93L433.56 210.93L443.1 115.54C446.05 86.05 436.33 56.54 416.44 34.57C396.55 12.6 368.13 0 338.48 0L231.52 0C201.87 0 173.45 12.6 153.56 34.57C133.67 56.54 123.95 86.06 126.9 115.54L136.44 210.87C137 216.55 137.29 222.21 137.59 228.2C137.68 229.98 137.77 231.76 137.87 233.54C140.34 278.43 156.51 320.25 183.41 351.3C185.69 353.93 188.04 356.46 190.44 358.9L190.44 386.49L161.61 415.31C161.15 415.77 160.76 416.28 160.41 416.81L63.61 440.98C22.59 451.23 0 476.4 0 511.84L0 580.94C0 598.07 13.94 612 31.08 612L538.92 612C556.06 612 570 598.07 570 580.94L570 511.84C570 476.4 547.41 451.23 506.38 440.98ZM274.42 548.55L295.58 548.55C296.32 548.55 297.05 548.52 297.77 548.47L305.22 592.17L264.78 592.17L272.23 548.47C272.95 548.52 273.68 548.55 274.42 548.55ZM306.82 517.49C306.82 523.69 301.78 528.73 295.58 528.73L274.42 528.73C268.22 528.73 263.18 523.69 263.18 517.49L263.18 501.65L285 487.11L306.82 501.65L306.82 517.49ZM210.28 375.9C232.72 391.93 258.38 400.51 285 400.51C311.62 400.51 337.28 391.93 359.72 375.9L359.72 386.49L285 461.17L210.28 386.49L210.28 375.9ZM322.3 488.13C322.29 488.12 322.28 488.12 322.27 488.11L300.57 473.65L369.64 404.62L389.08 424.06C382.52 435.89 367.11 463.6 345.36 502.7C345.32 502.78 345.23 502.93 344.99 502.99C344.71 503.06 344.51 502.93 344.44 502.88L322.3 488.13ZM168.27 47.88C184.41 30.05 207.46 19.83 231.52 19.83L338.48 19.83C362.54 19.83 385.59 30.05 401.73 47.88C417.87 65.7 425.76 89.64 423.36 113.56L417.32 173.93C403.92 142.01 389.09 121.56 388.22 120.37C385.06 116.06 379.04 115.03 374.63 118.04C348.56 135.83 232.47 138.1 189.93 137.47C187.06 137.41 184.31 138.63 182.39 140.77C170.24 154.33 160.67 169.57 153.58 182.94L146.64 113.57C144.24 89.65 152.13 65.7 168.27 47.88ZM157.68 232.45C157.58 230.7 157.5 228.95 157.41 227.19C157.35 225.98 157.28 224.75 157.22 223.53C159.36 217.46 171.75 184.04 194.26 157.35C221.7 157.59 333.8 157.41 376.91 139.13C385.41 152.54 403.34 183.91 412.79 223.3C412.72 224.59 412.66 225.87 412.59 227.14C412.5 228.91 412.42 230.68 412.32 232.45C407.75 315.57 351.82 380.68 285 380.68C218.18 380.68 162.25 315.57 157.68 232.45ZM200.36 404.62L269.43 473.65L247.73 488.11C247.72 488.12 247.71 488.12 247.7 488.13L225.56 502.88C225.5 502.93 225.29 503.06 225.01 502.99C224.77 502.93 224.68 502.78 224.64 502.71C202.89 463.61 187.48 435.89 180.92 424.06L200.36 404.62ZM19.84 580.94L19.84 511.84C19.84 485.64 36.18 468.27 68.42 460.22L164.93 436.12C170.65 446.44 182.5 467.77 207.31 512.34C210.07 517.31 214.82 520.93 220.34 522.26C221.93 522.65 223.54 522.83 225.14 522.83C229.17 522.83 233.16 521.65 236.56 519.38L243.34 514.86L243.34 517.49C243.34 526.56 247.25 534.73 253.48 540.42L244.66 592.17L115.06 592.17L115.06 538.64C115.06 533.16 110.62 528.73 105.14 528.73C99.66 528.73 95.22 533.16 95.22 538.64L95.22 592.17L31.08 592.17C24.88 592.17 19.84 587.13 19.84 580.94ZM550.16 580.94C550.16 587.13 545.12 592.17 538.92 592.17L474.78 592.17L474.78 538.64C474.78 533.16 470.34 528.73 464.86 528.73C459.38 528.73 454.94 533.16 454.94 538.64L454.94 592.17L325.34 592.17L316.52 540.42C322.75 534.73 326.66 526.56 326.66 517.49L326.66 514.87L333.44 519.38C336.84 521.65 340.83 522.83 344.86 522.83C346.46 522.83 348.08 522.65 349.66 522.26C355.18 520.93 359.93 517.31 362.69 512.34C387.47 467.81 399.33 446.49 405.05 436.15L501.58 460.22C533.82 468.27 550.16 485.64 550.16 511.84L550.16 580.94Z"
     class="shp0"
     id="Forma 1" />
</svg>
