<?xml version="1.0" encoding="UTF-8" standalone="no"?>
<svg
   xmlns:dc="http://purl.org/dc/elements/1.1/"
   xmlns:cc="http://creativecommons.org/ns#"
   xmlns:rdf="http://www.w3.org/1999/02/22-rdf-syntax-ns#"
   xmlns:svg="http://www.w3.org/2000/svg"
   xmlns="http://www.w3.org/2000/svg"
   xmlns:sodipodi="http://sodipodi.sourceforge.net/DTD/sodipodi-0.dtd"
   xmlns:inkscape="http://www.inkscape.org/namespaces/inkscape"
   inkscape:version="1.0 (4035a4fb49, 2020-05-01)"
   sodipodi:docname="balance.svg"
   id="svg5"
   version="1.1"
   height="612"
   width="612"
   viewBox="0 0 612 612">
  <metadata
     id="metadata11">
    <rdf:RDF>
      <cc:Work
         rdf:about="">
        <dc:format>image/svg+xml</dc:format>
        <dc:type
           rdf:resource="http://purl.org/dc/dcmitype/StillImage" />
      </cc:Work>
    </rdf:RDF>
  </metadata>
  <defs
     id="defs9" />
  <sodipodi:namedview
     inkscape:current-layer="svg5"
     inkscape:window-maximized="1"
     inkscape:window-y="0"
     inkscape:window-x="0"
     inkscape:cy="306"
     inkscape:cx="306"
     inkscape:zoom="1.1683007"
     showgrid="false"
     id="namedview7"
     inkscape:window-height="1011"
     inkscape:window-width="1920"
     inkscape:pageshadow="2"
     inkscape:pageopacity="0"
     guidetolerance="10"
     gridtolerance="10"
     objecttolerance="10"
     borderopacity="1"
     bordercolor="#666666"
     pagecolor="#ffffff" />
  <style
     id="style2">
		tspan { white-space:pre }
		.shp0 { fill: #000000 } 
	</style>
  <path
     style="fill:#c10b0b;fill-opacity:1"
     d="M611.99 359.17C611.99 359.07 612 358.97 612 358.87C612 358.82 611.99 358.77 611.99 358.71C611.99 358.51 611.98 358.3 611.96 358.09C611.95 357.96 611.94 357.82 611.92 357.68C611.9 357.51 611.87 357.34 611.84 357.17C611.81 357 611.78 356.83 611.74 356.66C611.71 356.53 611.68 356.39 611.64 356.26C611.58 356.06 611.53 355.86 611.46 355.67C611.44 355.62 611.43 355.57 611.41 355.51L520.23 102.23C536.68 96.66 548.55 81.09 548.55 62.79C548.55 57.31 544.12 52.87 538.64 52.87C533.16 52.87 528.73 57.31 528.73 62.79C528.73 74.81 518.94 84.6 506.92 84.6C474.49 84.6 451.83 75.25 427.84 65.35C402.09 54.74 375.53 43.79 335.48 42.44C332.41 33.21 325.12 25.89 315.91 22.78L315.91 9.91C315.91 4.44 311.48 0 306 0C300.52 0 296.09 4.44 296.09 9.91L296.09 22.78C286.88 25.89 279.59 33.21 276.52 42.44C236.47 43.78 209.91 54.74 184.16 65.35C160.17 75.25 137.51 84.6 105.08 84.6C93.06 84.6 83.27 74.81 83.27 62.79C83.27 57.31 78.84 52.87 73.36 52.87C67.88 52.87 63.45 57.31 63.45 62.79C63.45 81.09 75.32 96.66 91.77 102.23L0.59 355.51C0.57 355.57 0.56 355.62 0.54 355.67C0.47 355.86 0.41 356.06 0.36 356.26C0.32 356.39 0.29 356.53 0.26 356.66C0.22 356.83 0.19 357 0.16 357.17C0.13 357.34 0.1 357.51 0.08 357.68C0.06 357.82 0.05 357.96 0.04 358.09C0.02 358.3 0.01 358.51 0.01 358.71C0.01 358.77 0 358.82 0 358.87C0 358.97 0.01 359.07 0.01 359.17C0.01 359.29 0.01 359.4 0.02 359.51C0.26 379.63 11.69 398.25 32.29 411.99C51.87 425.04 77.73 432.23 105.08 432.23C132.44 432.23 158.29 425.04 177.88 411.99C198.48 398.25 209.91 379.64 210.15 359.51C210.15 359.4 210.15 359.29 210.16 359.17C210.16 359.07 210.17 358.97 210.17 358.87C210.17 358.82 210.16 358.77 210.16 358.71C210.16 358.51 210.15 358.3 210.13 358.09C210.12 357.96 210.11 357.82 210.09 357.68C210.07 357.51 210.04 357.34 210.01 357.17C209.98 357 209.95 356.83 209.91 356.66C209.88 356.53 209.84 356.39 209.81 356.26C209.75 356.06 209.7 355.86 209.63 355.67C209.61 355.62 209.6 355.57 209.58 355.51L118.99 103.88C148.19 101.62 170.28 92.53 191.72 83.68C215.65 73.81 240.35 63.64 276.62 62.28C279.75 71.37 286.97 78.56 296.09 81.64L296.09 371.74C283.81 375.89 274.94 387.51 274.94 401.17C274.94 409.34 278.11 416.77 283.28 422.32C278.11 427.87 274.94 435.31 274.94 443.47L274.94 549.87L231.98 549.87C214.85 549.87 200.91 563.81 200.91 580.94L200.91 602.09C200.91 607.56 205.35 612 210.83 612L401.17 612C406.65 612 411.08 607.56 411.08 602.09L411.08 580.94C411.08 563.81 397.15 549.87 380.02 549.87L337.06 549.87L337.06 443.47C337.06 435.3 333.89 427.87 328.72 422.32C333.89 416.77 337.06 409.34 337.06 401.17C337.06 387.51 328.19 375.89 315.91 371.74L315.91 81.64C325.03 78.56 332.25 71.37 335.38 62.28C371.65 63.64 396.34 73.82 420.28 83.68C441.72 92.53 463.81 101.62 493 103.88L402.42 355.51C402.4 355.57 402.39 355.62 402.37 355.67C402.3 355.86 402.25 356.06 402.19 356.26C402.15 356.39 402.12 356.53 402.09 356.66C402.05 356.83 402.02 357 401.99 357.17C401.96 357.34 401.93 357.51 401.91 357.68C401.89 357.82 401.88 357.96 401.87 358.09C401.85 358.3 401.84 358.51 401.84 358.71C401.84 358.77 401.83 358.82 401.83 358.87C401.83 358.97 401.84 359.07 401.84 359.17C401.84 359.29 401.84 359.4 401.85 359.51C402.09 379.63 413.52 398.25 434.12 411.99C453.71 425.04 479.56 432.23 506.92 432.23C534.27 432.23 560.13 425.04 579.71 411.99C600.31 398.25 611.74 379.64 611.98 359.51C611.99 359.4 611.99 359.29 611.99 359.17ZM105.08 123.78L186.15 348.96L24.02 348.96L105.08 123.78ZM105.08 412.41C64.25 412.41 29.01 393.26 21.36 368.79L188.81 368.79C181.16 393.26 145.92 412.41 105.08 412.41ZM391.26 580.94L391.26 592.17L220.74 592.17L220.74 580.94C220.74 574.74 225.78 569.7 231.98 569.7L380.02 569.7C386.22 569.7 391.26 574.74 391.26 580.94ZM294.76 549.87L294.76 443.47C294.76 437.27 299.8 432.23 306 432.23C312.2 432.23 317.24 437.27 317.24 443.47L317.24 549.87L294.76 549.87ZM306 412.41C299.8 412.41 294.76 407.37 294.76 401.17C294.76 394.98 299.8 389.94 306 389.94C312.2 389.94 317.24 394.98 317.24 401.17C317.24 407.37 312.2 412.41 306 412.41ZM306.02 63.45C306.01 63.45 306.01 63.44 306 63.44C305.99 63.44 305.99 63.45 305.98 63.45C299.8 63.44 294.76 58.4 294.76 52.21C294.76 46.03 299.79 41 305.97 40.98C305.98 40.98 305.99 40.98 306 40.98C306.01 40.98 306.02 40.98 306.03 40.98C312.21 40.99 317.24 46.03 317.24 52.21C317.24 58.4 312.2 63.44 306.02 63.45ZM587.98 348.96L425.85 348.96L506.92 123.78L587.98 348.96ZM506.92 412.41C466.08 412.41 430.84 393.26 423.19 368.79L590.64 368.79C582.99 393.26 547.75 412.41 506.92 412.41Z"
     class="shp0"
     id="Forma 1" />
</svg>
