<?xml version="1.0" encoding="UTF-8" standalone="no"?>
<svg
   xmlns:dc="http://purl.org/dc/elements/1.1/"
   xmlns:cc="http://creativecommons.org/ns#"
   xmlns:rdf="http://www.w3.org/1999/02/22-rdf-syntax-ns#"
   xmlns:svg="http://www.w3.org/2000/svg"
   xmlns="http://www.w3.org/2000/svg"
   xmlns:sodipodi="http://sodipodi.sourceforge.net/DTD/sodipodi-0.dtd"
   xmlns:inkscape="http://www.inkscape.org/namespaces/inkscape"
   inkscape:version="1.0 (4035a4fb49, 2020-05-01)"
   sodipodi:docname="clock.svg"
   id="svg5"
   version="1.1"
   height="612"
   width="570"
   viewBox="0 0 570 612">
  <metadata
     id="metadata11">
    <rdf:RDF>
      <cc:Work
         rdf:about="">
        <dc:format>image/svg+xml</dc:format>
        <dc:type
           rdf:resource="http://purl.org/dc/dcmitype/StillImage" />
      </cc:Work>
    </rdf:RDF>
  </metadata>
  <defs
     id="defs9" />
  <sodipodi:namedview
     inkscape:current-layer="svg5"
     inkscape:window-maximized="1"
     inkscape:window-y="0"
     inkscape:window-x="0"
     inkscape:cy="306"
     inkscape:cx="285"
     inkscape:zoom="1.1683007"
     showgrid="false"
     id="namedview7"
     inkscape:window-height="1011"
     inkscape:window-width="1920"
     inkscape:pageshadow="2"
     inkscape:pageopacity="0"
     guidetolerance="10"
     gridtolerance="10"
     objecttolerance="10"
     borderopacity="1"
     bordercolor="#666666"
     pagecolor="#ffffff" />
  <style
     id="style2">
		tspan { white-space:pre }
		.shp0 { fill: #000000 } 
	</style>
  <path
     style="fill:#c11717;fill-opacity:1"
     d="M506.38 440.98L409.62 416.85C409.25 416.31 408.86 415.78 408.38 415.31L376.65 383.59C375.24 382.17 373.44 381.23 371.51 380.86C438.8 348.54 485.36 279.73 485.36 200.25C485.36 89.83 395.48 0 285 0C174.52 0 84.64 89.83 84.64 200.25C84.64 279.73 131.2 348.54 198.49 380.86C196.56 381.23 194.76 382.17 193.35 383.59L161.62 415.31C161.16 415.77 160.77 416.28 160.41 416.81L63.61 440.98C22.59 451.23 0 476.4 0 511.84L0 580.94C0 598.07 13.94 612 31.08 612L538.92 612C556.06 612 570 598.07 570 580.94L570 511.84C570 476.4 547.41 451.23 506.38 440.98ZM389.08 424.06C381.48 437.77 362.83 471.3 345.36 502.71C345.32 502.78 345.23 502.93 344.99 502.99C344.71 503.07 344.5 502.93 344.44 502.88L322.3 488.13C322.29 488.12 322.28 488.12 322.26 488.11L300.57 473.65L369.64 404.62L389.08 424.06ZM274.42 548.55L295.58 548.55C296.32 548.55 297.05 548.52 297.77 548.47L305.22 592.17L264.78 592.17L272.23 548.47C272.95 548.52 273.68 548.55 274.42 548.55ZM306.82 517.49C306.82 523.69 301.78 528.73 295.58 528.73L274.42 528.73C268.22 528.73 263.18 523.69 263.18 517.49L263.18 501.65L285 487.11L306.82 501.65L306.82 517.49ZM104.48 200.25C104.48 100.77 185.46 19.83 285 19.83C384.54 19.83 465.52 100.77 465.52 200.25C465.52 299.74 384.54 380.68 285 380.68C185.46 380.68 104.48 299.74 104.48 200.25ZM285 400.51C311.68 400.51 337.16 395.26 360.46 385.75L285 461.17L209.54 385.75C232.84 395.26 258.32 400.51 285 400.51ZM200.36 404.62L269.43 473.65L247.74 488.11C247.72 488.12 247.71 488.12 247.7 488.13L225.56 502.88C225.5 502.93 225.3 503.07 225.01 502.99C224.77 502.93 224.69 502.78 224.64 502.7C207.17 471.3 188.52 437.77 180.92 424.06L200.36 404.62ZM19.84 580.94L19.84 511.84C19.84 485.64 36.18 468.27 68.42 460.22L164.93 436.12C170.65 446.44 182.5 467.77 207.3 512.34C210.07 517.31 214.82 520.93 220.34 522.26C221.92 522.65 223.53 522.83 225.14 522.83C229.16 522.83 233.16 521.65 236.56 519.38L243.34 514.87L243.34 517.49C243.34 526.56 247.25 534.73 253.47 540.42L244.66 592.17L115.06 592.17L115.06 538.64C115.06 533.16 110.62 528.73 105.14 528.73C99.66 528.73 95.22 533.16 95.22 538.64L95.22 592.17L31.08 592.17C24.88 592.17 19.84 587.13 19.84 580.94ZM550.16 580.94C550.16 587.13 545.12 592.17 538.92 592.17L474.78 592.17L474.78 538.64C474.78 533.16 470.34 528.73 464.86 528.73C459.38 528.73 454.94 533.16 454.94 538.64L454.94 592.17L325.34 592.17L316.52 540.42C322.75 534.73 326.66 526.56 326.66 517.49L326.66 514.87L333.44 519.38C336.84 521.65 340.83 522.83 344.86 522.83C346.46 522.83 348.08 522.64 349.66 522.26C355.18 520.92 359.93 517.31 362.69 512.34C387.47 467.81 399.33 446.48 405.05 436.15L501.58 460.22C533.82 468.27 550.16 485.64 550.16 511.84L550.16 580.94ZM443.04 200.25C443.04 113.16 372.14 42.3 285 42.3C197.86 42.3 126.96 113.16 126.96 200.25C126.96 287.35 197.86 358.21 285 358.21C372.14 358.21 443.04 287.35 443.04 200.25ZM147.16 210.17L168.62 210.17C174.1 210.17 178.54 205.73 178.54 200.25C178.54 194.78 174.1 190.34 168.62 190.34L147.16 190.34C152.03 122.06 206.77 67.35 275.08 62.48L275.08 83.94C275.08 89.41 279.52 93.85 285 93.85C290.48 93.85 294.92 89.41 294.92 83.94L294.92 62.48C363.24 67.35 417.98 122.07 422.84 190.36C422.74 190.35 422.64 190.34 422.54 190.34L401.38 190.34C395.9 190.34 391.46 194.78 391.46 200.26C391.46 205.73 395.9 210.17 401.38 210.17L422.54 210.17C422.64 210.17 422.74 210.16 422.84 210.16C417.98 278.44 363.24 333.16 294.92 338.03L294.92 316.57C294.92 311.1 290.48 306.66 285 306.66C279.52 306.66 275.08 311.1 275.08 316.57L275.08 338.02C206.77 333.16 152.03 278.45 147.16 210.17ZM271.19 228.07C275.36 230.15 280.04 231.32 285 231.32C298.67 231.32 310.3 222.45 314.45 210.17L359.06 210.17C364.54 210.17 368.98 205.73 368.98 200.25C368.98 194.78 364.54 190.34 359.06 190.34L314.45 190.34C313.99 189 313.46 187.71 312.83 186.46L366.08 133.24C369.95 129.37 369.95 123.09 366.08 119.22C362.2 115.35 355.92 115.35 352.05 119.22L298.81 172.44C294.64 170.36 289.96 169.19 285 169.19C271.33 169.19 259.7 178.06 255.55 190.34L242.68 190.34C237.2 190.34 232.76 194.78 232.76 200.25C232.76 205.73 237.2 210.17 242.68 210.17L255.55 210.17C256.01 211.51 256.54 212.8 257.17 214.05L239.83 231.38C235.95 235.26 235.95 241.53 239.83 245.4C241.76 247.34 244.3 248.31 246.84 248.31C249.38 248.31 251.92 247.34 253.86 245.4L271.19 228.07ZM285 189.02C291.2 189.02 296.24 194.06 296.24 200.25C296.24 206.45 291.2 211.49 285 211.49C278.8 211.49 273.76 206.45 273.76 200.25C273.76 194.06 278.8 189.02 285 189.02Z"
     class="shp0"
     id="Forma 1" />
</svg>
