<svg xmlns="http://www.w3.org/2000/svg" viewBox="0 0 48 48" width="48" height="48">
	<style>
		tspan { white-space:pre }
		.shp0 { fill: #000000 } 
	</style>
	<path id="Forma 1" class="shp0" d="M28.78 24.14L47.81 5.38C48.99 4.21 48.99 2.32 47.81 1.16C46.63 -0.01 44.71 -0.01 43.53 1.16L24.5 19.92L5.47 1.16C4.29 -0.01 2.38 -0.01 1.19 1.16C0.01 2.32 0.01 4.21 1.19 5.38L20.22 24.14L1.19 42.91C0.01 44.07 0.01 45.96 1.19 47.13C1.78 47.71 2.56 48 3.33 48C4.11 48 4.88 47.71 5.47 47.13L24.5 28.36L43.53 47.13C44.12 47.71 44.9 48 45.67 48C46.45 48 47.22 47.71 47.81 47.13C48.99 45.96 48.99 44.07 47.81 42.91L28.78 24.14Z" />
</svg>