<?xml version="1.0" encoding="UTF-8" standalone="no"?>
<svg
   xmlns:dc="http://purl.org/dc/elements/1.1/"
   xmlns:cc="http://creativecommons.org/ns#"
   xmlns:rdf="http://www.w3.org/1999/02/22-rdf-syntax-ns#"
   xmlns:svg="http://www.w3.org/2000/svg"
   xmlns="http://www.w3.org/2000/svg"
   xmlns:sodipodi="http://sodipodi.sourceforge.net/DTD/sodipodi-0.dtd"
   xmlns:inkscape="http://www.inkscape.org/namespaces/inkscape"
   inkscape:version="1.0 (4035a4fb49, 2020-05-01)"
   sodipodi:docname="exam.svg"
   id="svg5"
   version="1.1"
   height="512"
   width="478"
   viewBox="0 0 478 512">
  <metadata
     id="metadata11">
    <rdf:RDF>
      <cc:Work
         rdf:about="">
        <dc:format>image/svg+xml</dc:format>
        <dc:type
           rdf:resource="http://purl.org/dc/dcmitype/StillImage" />
      </cc:Work>
    </rdf:RDF>
  </metadata>
  <defs
     id="defs9" />
  <sodipodi:namedview
     inkscape:current-layer="svg5"
     inkscape:window-maximized="1"
     inkscape:window-y="0"
     inkscape:window-x="0"
     inkscape:cy="256"
     inkscape:cx="239"
     inkscape:zoom="1.3964844"
     showgrid="false"
     id="namedview7"
     inkscape:window-height="1011"
     inkscape:window-width="1920"
     inkscape:pageshadow="2"
     inkscape:pageopacity="0"
     guidetolerance="10"
     gridtolerance="10"
     objecttolerance="10"
     borderopacity="1"
     bordercolor="#666666"
     pagecolor="#ffffff" />
  <style
     id="style2">
		tspan { white-space:pre }
		.shp0 { fill: #000000 } 
	</style>
  <path
     style="fill:#c10b0b;fill-opacity:1"
     d="M358.18 315.73C358.18 311.02 354.36 307.2 349.65 307.2L298.48 307.2C293.78 307.2 289.96 311.02 289.96 315.73C289.96 320.44 293.78 324.27 298.48 324.27L349.65 324.27C354.36 324.27 358.18 320.44 358.18 315.73ZM324.07 93.87L324.07 51.2C324.07 46.49 320.25 42.67 315.54 42.67C310.83 42.67 307.01 46.49 307.01 51.2L307.01 93.87C307.01 117.39 326.14 136.53 349.65 136.53L426.4 136.53L426.4 298.67C426.4 303.38 430.22 307.2 434.93 307.2C439.64 307.2 443.46 303.38 443.46 298.67L443.46 128C443.46 123.29 439.64 119.47 434.93 119.47L349.65 119.47C335.55 119.47 324.07 107.98 324.07 93.87ZM349.65 204.8L281.43 204.8C276.72 204.8 272.9 208.62 272.9 213.33C272.9 218.04 276.72 221.87 281.43 221.87L349.65 221.87C354.36 221.87 358.18 218.04 358.18 213.33C358.18 208.62 354.36 204.8 349.65 204.8ZM255.84 213.33C255.84 208.62 252.02 204.8 247.31 204.8L196.15 204.8C191.44 204.8 187.62 208.62 187.62 213.33C187.62 218.04 191.44 221.87 196.15 221.87L247.31 221.87C252.02 221.87 255.84 218.04 255.84 213.33ZM196.14 256C191.44 256 187.62 259.82 187.62 264.53C187.62 269.24 191.44 273.07 196.14 273.07L213.2 273.07C217.91 273.07 221.73 269.24 221.73 264.53C221.73 259.82 217.91 256 213.2 256L196.14 256L196.14 256ZM196.14 170.67L281.43 170.67C286.13 170.67 289.95 166.84 289.95 162.13C289.95 157.42 286.13 153.6 281.43 153.6L196.14 153.6C191.44 153.6 187.62 157.42 187.62 162.13C187.62 166.84 191.44 170.67 196.14 170.67ZM247.31 273.07L332.59 273.07C337.3 273.07 341.12 269.24 341.12 264.53C341.12 259.82 337.3 256 332.59 256L247.31 256C242.61 256 238.79 259.82 238.79 264.53C238.79 269.24 242.61 273.07 247.31 273.07ZM298.48 358.4C293.77 358.4 289.95 362.22 289.95 366.93C289.95 371.64 293.77 375.47 298.48 375.47L315.54 375.47C320.25 375.47 324.07 371.64 324.07 366.93C324.07 362.22 320.25 358.4 315.54 358.4L298.48 358.4ZM264.37 307.2L196.14 307.2C191.44 307.2 187.62 311.02 187.62 315.73C187.62 320.44 191.44 324.27 196.14 324.27L264.37 324.27C269.08 324.27 272.9 320.44 272.9 315.73C272.9 311.02 269.08 307.2 264.37 307.2ZM264.37 358.4L196.14 358.4C191.44 358.4 187.62 362.22 187.62 366.93C187.62 371.64 191.44 375.47 196.14 375.47L264.37 375.47C269.08 375.47 272.9 371.64 272.9 366.93C272.9 362.22 269.08 358.4 264.37 358.4ZM467.41 351.5L450.36 334.43C437.25 321.31 417.28 321.34 404.19 334.43L292.45 446.23C290.86 447.83 289.95 450.01 289.95 452.27L289.95 503.47C289.95 508.18 293.77 512 298.48 512L349.65 512C351.91 512 354.08 511.1 355.68 509.5L467.41 397.7C481 384.1 481 365.1 467.41 351.5ZM393.16 369.6L406.69 383.13L332.59 457.27L319.07 443.73L393.16 369.6ZM307.01 494.93L307.01 455.8L346.12 494.93L307.01 494.93ZM358.18 482.87L344.65 469.33L418.75 395.19L432.27 408.73L358.18 482.87ZM455.36 385.63L444.33 396.66L405.22 357.53L416.25 346.5C422.98 339.76 431.53 339.73 438.3 346.5L455.36 363.56C462.26 370.47 462.26 378.73 455.36 385.63ZM264.37 494.93L42.64 494.93C28.53 494.93 17.05 483.45 17.05 469.33L17.05 42.67C17.05 28.55 28.53 17.07 42.64 17.07L312.01 17.07L394.79 99.9C398.12 103.24 403.51 103.24 406.85 99.9C410.18 96.56 410.18 91.17 406.85 87.83L321.57 2.5C319.97 0.9 317.8 0 315.54 0L42.64 0C19.13 0 0 19.14 0 42.67L0 469.33C0 492.86 19.13 512 42.64 512L264.37 512C269.08 512 272.9 508.18 272.9 503.47C272.9 498.76 269.08 494.93 264.37 494.93ZM264.37 409.6L196.14 409.6C191.44 409.6 187.62 413.42 187.62 418.13C187.62 422.84 191.44 426.67 196.14 426.67L264.37 426.67C269.08 426.67 272.9 422.84 272.9 418.13C272.9 413.42 269.08 409.6 264.37 409.6ZM153.51 162.13C153.51 157.42 149.68 153.6 144.98 153.6L93.81 153.6C89.1 153.6 85.28 157.42 85.28 162.13L85.28 213.33C85.28 218.04 89.1 221.87 93.81 221.87L144.98 221.87C149.68 221.87 153.51 218.04 153.51 213.33L153.51 162.13ZM136.45 204.8L102.34 204.8L102.34 170.67L136.45 170.67L136.45 204.8ZM93.81 426.67L144.98 426.67C149.68 426.67 153.5 422.84 153.5 418.13L153.5 366.93C153.5 362.22 149.68 358.4 144.98 358.4L93.81 358.4C89.1 358.4 85.28 362.22 85.28 366.93L85.28 418.13C85.28 422.84 89.1 426.67 93.81 426.67ZM102.34 375.47L136.45 375.47L136.45 409.6L102.34 409.6L102.34 375.47ZM104.83 321.77C106.44 323.37 108.61 324.27 110.86 324.27C111.15 324.27 111.42 324.26 111.71 324.22C114.25 323.98 116.54 322.59 117.96 320.47L152.07 269.27C154.68 265.34 153.62 260.04 149.71 257.43C145.78 254.81 140.5 255.88 137.88 259.8L109.54 302.33L99.84 292.63C96.5 289.3 91.11 289.3 87.78 292.63C84.44 295.97 84.44 301.36 87.78 304.7L104.83 321.77Z"
     class="shp0"
     id="Shape 1" />
</svg>
