<?xml version="1.0" encoding="UTF-8" standalone="no"?>
<svg
   xmlns:dc="http://purl.org/dc/elements/1.1/"
   xmlns:cc="http://creativecommons.org/ns#"
   xmlns:rdf="http://www.w3.org/1999/02/22-rdf-syntax-ns#"
   xmlns:svg="http://www.w3.org/2000/svg"
   xmlns="http://www.w3.org/2000/svg"
   xmlns:sodipodi="http://sodipodi.sourceforge.net/DTD/sodipodi-0.dtd"
   xmlns:inkscape="http://www.inkscape.org/namespaces/inkscape"
   inkscape:version="1.0 (4035a4fb49, 2020-05-01)"
   sodipodi:docname="law-book (1).svg"
   id="svg5"
   version="1.1"
   height="800"
   width="606"
   viewBox="0 0 606 800">
  <metadata
     id="metadata11">
    <rdf:RDF>
      <cc:Work
         rdf:about="">
        <dc:format>image/svg+xml</dc:format>
        <dc:type
           rdf:resource="http://purl.org/dc/dcmitype/StillImage" />
      </cc:Work>
    </rdf:RDF>
  </metadata>
  <defs
     id="defs9" />
  <sodipodi:namedview
     inkscape:current-layer="svg5"
     inkscape:window-maximized="1"
     inkscape:window-y="0"
     inkscape:window-x="0"
     inkscape:cy="400"
     inkscape:cx="303"
     inkscape:zoom="0.89375"
     showgrid="false"
     id="namedview7"
     inkscape:window-height="1011"
     inkscape:window-width="1920"
     inkscape:pageshadow="2"
     inkscape:pageopacity="0"
     guidetolerance="10"
     gridtolerance="10"
     objecttolerance="10"
     borderopacity="1"
     bordercolor="#666666"
     pagecolor="#ffffff" />
  <style
     id="style2">
		tspan { white-space:pre }
		.shp0 { fill: #000000 } 
	</style>
  <path
     style="fill:#c10b0b;fill-opacity:1"
     d="M565.43 27.65L219.26 27.65L219.26 26.78C219.26 12.01 207.26 0 192.5 0L109.63 0C94.88 0 82.87 12.01 82.87 26.78L82.87 27.65L40.57 27.65C18.2 27.65 0 45.86 0 68.25L0 759.4C0 781.79 18.2 800 40.57 800L565.43 800C587.8 800 606 781.79 606 759.4L606 68.25C606 45.86 587.8 27.65 565.43 27.65ZM108.77 26.78C108.77 26.31 109.16 25.92 109.63 25.92L192.5 25.92C192.98 25.92 193.37 26.31 193.37 26.78L193.37 185.51L156.86 167.24C155.04 166.33 153.05 165.87 151.07 165.87C149.08 165.87 147.1 166.33 145.28 167.24L108.77 185.51L108.77 26.78ZM580.1 759.4C580.1 767.49 573.52 774.08 565.43 774.08L40.57 774.08C32.48 774.08 25.9 767.49 25.9 759.4L25.9 68.25C25.9 60.15 32.48 53.56 40.57 53.56L82.87 53.56L82.87 206.48C82.87 210.97 85.2 215.14 89.01 217.5C92.83 219.87 97.6 220.08 101.61 218.07L151.07 193.32L200.53 218.07C202.36 218.98 204.34 219.44 206.32 219.44C208.68 219.44 211.05 218.79 213.13 217.5C216.94 215.14 219.27 210.97 219.27 206.48L219.27 53.56L565.43 53.56C573.52 53.56 580.1 60.15 580.1 68.25L580.1 759.4L580.1 759.4ZM495.45 495.74C495.44 495.62 495.44 495.49 495.43 495.37C495.4 495.12 495.35 494.86 495.31 494.6C495.28 494.42 495.26 494.24 495.22 494.07C495.19 493.9 495.13 493.73 495.09 493.56C495.02 493.3 494.96 493.04 494.88 492.79C494.84 492.68 494.8 492.57 494.76 492.46C494.65 492.16 494.54 491.86 494.42 491.56C494.4 491.54 494.4 491.52 494.39 491.5L440.26 369.6L440.26 357.67L454.93 357.67C462.08 357.67 467.88 351.87 467.88 344.71C467.88 337.55 462.08 331.75 454.93 331.75L315.95 331.75L315.95 314.07C331.99 308.64 343.57 293.45 343.57 275.59C343.57 253.2 325.37 234.99 303 234.99C280.63 234.99 262.43 253.2 262.43 275.59C262.43 293.45 274.01 308.64 290.05 314.07L290.05 331.75L151.07 331.75C143.92 331.75 138.12 337.55 138.12 344.71C138.12 351.87 143.92 357.67 151.07 357.67L165.74 357.67L165.74 369.6L111.61 491.5C111.6 491.52 111.59 491.54 111.58 491.57C111.46 491.86 111.35 492.16 111.24 492.46C111.2 492.57 111.15 492.68 111.12 492.79C111.04 493.04 110.98 493.3 110.91 493.56C110.87 493.73 110.81 493.9 110.78 494.07C110.74 494.24 110.72 494.42 110.69 494.6C110.65 494.86 110.6 495.12 110.57 495.37C110.56 495.49 110.56 495.62 110.55 495.74C110.52 496.05 110.5 496.37 110.5 496.69C110.5 496.71 110.5 496.74 110.5 496.76C110.5 526.77 141.09 551.19 178.69 551.19C216.29 551.19 246.89 526.77 246.89 496.76C246.89 496.73 246.89 496.71 246.89 496.69C246.88 496.37 246.86 496.06 246.84 495.74C246.83 495.62 246.82 495.49 246.81 495.37C246.79 495.12 246.74 494.86 246.7 494.6C246.67 494.42 246.64 494.24 246.61 494.07C246.57 493.9 246.52 493.73 246.47 493.56C246.41 493.3 246.35 493.04 246.27 492.79C246.23 492.68 246.18 492.57 246.14 492.46C246.04 492.16 245.93 491.86 245.8 491.56C245.79 491.54 245.78 491.52 245.77 491.5L191.64 369.6L191.64 357.67L290.05 357.67L290.05 472.11C274.01 477.53 262.43 492.72 262.43 510.58L262.43 608.21L233.94 608.21C226.79 608.21 220.99 614.01 220.99 621.17C220.99 628.32 226.79 634.12 233.94 634.12L372.06 634.12C379.21 634.12 385.01 628.32 385.01 621.17C385.01 614.01 379.21 608.21 372.06 608.21L343.57 608.21L343.57 510.58C343.57 492.72 331.99 477.53 315.95 472.11L315.95 357.67L414.36 357.67L414.36 369.6L360.23 491.5C360.22 491.52 360.21 491.54 360.2 491.57C360.07 491.86 359.96 492.16 359.86 492.46C359.82 492.57 359.77 492.68 359.73 492.79C359.65 493.04 359.59 493.3 359.53 493.56C359.48 493.73 359.43 493.9 359.39 494.07C359.36 494.24 359.34 494.42 359.3 494.6C359.26 494.86 359.21 495.12 359.19 495.37C359.18 495.49 359.17 495.62 359.16 495.74C359.14 496.05 359.12 496.37 359.11 496.69C359.11 496.71 359.11 496.74 359.11 496.76C359.11 526.77 389.7 551.19 427.31 551.19C464.91 551.19 495.5 526.77 495.5 496.76C495.5 496.73 495.5 496.71 495.5 496.69C495.5 496.37 495.48 496.05 495.45 495.74ZM303 260.91C311.09 260.91 317.67 267.5 317.67 275.59C317.67 283.69 311.09 290.28 303 290.28C294.91 290.28 288.33 283.69 288.33 275.59C288.33 267.5 294.91 260.91 303 260.91ZM178.69 404.26L214.01 483.8L143.37 483.8L178.69 404.26ZM178.69 525.27C162.63 525.27 148.32 518.87 141.18 509.72L216.2 509.72C209.06 518.87 194.75 525.27 178.69 525.27ZM317.67 608.21L288.33 608.21L288.33 510.58C288.33 502.48 294.91 495.9 303 495.9C311.09 495.9 317.67 502.48 317.67 510.58L317.67 608.21ZM427.31 404.26L462.63 483.8L391.98 483.8L427.31 404.26ZM427.31 525.27C411.25 525.27 396.94 518.87 389.8 509.72L464.81 509.72C457.68 518.87 443.37 525.27 427.31 525.27Z"
     class="shp0"
     id="Shape 1" />
</svg>
