<?xml version="1.0" encoding="UTF-8" standalone="no"?>
<svg
   xmlns:dc="http://purl.org/dc/elements/1.1/"
   xmlns:cc="http://creativecommons.org/ns#"
   xmlns:rdf="http://www.w3.org/1999/02/22-rdf-syntax-ns#"
   xmlns:svg="http://www.w3.org/2000/svg"
   xmlns="http://www.w3.org/2000/svg"
   xmlns:sodipodi="http://sodipodi.sourceforge.net/DTD/sodipodi-0.dtd"
   xmlns:inkscape="http://www.inkscape.org/namespaces/inkscape"
   inkscape:version="1.0 (4035a4fb49, 2020-05-01)"
   sodipodi:docname="lawyer.svg"
   id="svg5"
   version="1.1"
   height="800"
   width="745"
   viewBox="0 0 745 800">
  <metadata
     id="metadata11">
    <rdf:RDF>
      <cc:Work
         rdf:about="">
        <dc:format>image/svg+xml</dc:format>
        <dc:type
           rdf:resource="http://purl.org/dc/dcmitype/StillImage" />
      </cc:Work>
    </rdf:RDF>
  </metadata>
  <defs
     id="defs9" />
  <sodipodi:namedview
     inkscape:current-layer="svg5"
     inkscape:window-maximized="1"
     inkscape:window-y="0"
     inkscape:window-x="0"
     inkscape:cy="400"
     inkscape:cx="372.5"
     inkscape:zoom="0.89375"
     showgrid="false"
     id="namedview7"
     inkscape:window-height="1011"
     inkscape:window-width="1920"
     inkscape:pageshadow="2"
     inkscape:pageopacity="0"
     guidetolerance="10"
     gridtolerance="10"
     objecttolerance="10"
     borderopacity="1"
     bordercolor="#666666"
     pagecolor="#ffffff" />
  <style
     id="style2">
		tspan { white-space:pre }
		.shp0 { fill: #000000 } 
	</style>
  <path
     style="fill:#c10b0b;fill-opacity:1"
     d="M661.86 576.45L611.29 563.81C610.93 558.74 607.59 554.14 602.46 552.43L523.26 526.04C520.3 521.34 516.37 517.16 511.49 513.91L491.82 500.8C536.5 457.88 565.23 391.47 565.23 317.06C565.23 306.22 563.97 294.82 561.91 283.34C562.2 282.51 562.41 281.64 562.53 280.74C562.61 280.1 571.12 215.19 575.86 137.2C577.76 105.96 567.98 75.43 548.31 51.22C528.58 26.94 500.66 11.2 469.7 6.9C436.75 2.32 404.05 0 372.5 0C347.4 0 285.68 4.13 243.02 41.47L238.19 41.47C215.45 41.47 193.52 51.01 178.03 67.64C162.59 84.22 154.66 106.68 156.28 129.25C159.89 179.66 166.65 251.24 178.32 305.94C178.63 307.37 179.18 308.69 179.89 309.88C179.83 312.27 179.77 314.66 179.77 317.06C179.77 391.47 208.5 457.88 253.18 500.8L233.5 513.91C228.63 517.16 224.7 521.34 221.73 526.04L142.54 552.43C137.41 554.14 134.07 558.74 133.71 563.81L83.14 576.45C34.19 588.68 0 632.45 0 682.89L0 759.4C0 781.79 18.22 800 40.62 800L704.38 800C726.78 800 745 781.79 745 759.4L745 682.89C745 632.45 710.81 588.68 661.86 576.45ZM513.82 642.18L537.28 677.34L488.12 774.08L454.64 774.08C454.4 755.26 455.54 714.36 468 680.99C468.19 680.5 468.33 680 468.45 679.5C468.56 679.29 468.67 679.08 468.78 678.86L488.9 638.65C501.02 614.41 515.57 585.31 525.31 565.83C527.02 562.41 528.2 558.84 528.88 555.23L582.04 572.94L569.83 610.33L521.47 622.41C517.38 623.44 514.04 626.38 512.52 630.31C511 634.25 511.49 638.67 513.82 642.18ZM411.8 774.08L400.52 685.31C408.08 680.57 413.12 672.19 413.12 662.63L413.12 657.75C421.73 663.84 431.11 671.31 440.81 680.37C429.6 715.66 428.44 754.76 428.69 774.08L411.8 774.08ZM316.7 774.08C316.95 754.71 315.78 715.45 304.48 680.09C314.08 671.16 323.36 663.78 331.88 657.74L331.88 662.63C331.88 672.19 336.93 680.57 344.48 685.31L333.2 774.08L316.7 774.08ZM372.5 634.97C375.7 636.24 380.76 638.44 387.19 641.79L387.19 662.63C387.19 663.11 386.81 663.5 386.33 663.5L358.67 663.5C358.19 663.5 357.81 663.11 357.81 662.63L357.81 641.79C364.24 638.43 369.3 636.24 372.5 634.97ZM370.09 689.42L374.91 689.42L385.66 774.08L359.34 774.08L370.09 689.42ZM502.11 554.25C478 602.48 460.82 636.85 451.64 655.18C429.4 635.64 409.14 623.65 395.24 616.76L484.78 527.26L497.11 535.48C503.26 539.58 505.41 547.65 502.11 554.25ZM538.44 317.93L496.09 317.93L496.09 303.24C496.09 296.08 490.29 290.28 483.13 290.28L400.16 290.28C393 290.28 387.19 296.08 387.19 303.24L387.19 306.86C382.63 305.09 377.68 304.1 372.5 304.1C367.32 304.1 362.37 305.09 357.81 306.86L357.81 303.24C357.81 296.08 352 290.28 344.84 290.28L261.87 290.28C254.71 290.28 248.91 296.08 248.91 303.24L248.91 317.93L206.56 317.93C206.27 317.93 205.99 317.95 205.7 317.97C205.7 317.67 205.7 317.37 205.7 317.06C205.7 272.34 216.83 230.09 237.99 194.23C319.59 219.61 411.13 219.54 507.86 219.45L515.88 219.44C525.84 244.61 539.3 284.64 539.3 317.06C539.3 317.37 539.3 317.67 539.3 317.97C539.01 317.95 538.73 317.93 538.44 317.93ZM182.14 127.4C181.02 111.75 186.3 96.8 197.01 85.3C207.76 73.75 222.39 67.39 238.19 67.39L248.04 67.39C251.37 67.39 254.58 66.11 256.98 63.81C292.91 29.61 349.74 25.92 372.5 25.92C402.86 25.92 434.36 28.16 466.13 32.57C490.57 35.96 512.6 48.39 528.18 67.56C543.74 86.72 551.49 110.89 549.98 135.62C548.11 166.44 545.64 195.17 543.35 218.61C541.08 212.58 538.79 206.83 536.58 201.5C534.57 196.67 529.85 193.52 524.61 193.52L507.83 193.53C409.44 193.62 316.49 193.69 236.51 166.49C230.9 164.58 224.71 166.72 221.48 171.68C209.13 190.6 199.45 211.26 192.51 233.14C187.65 195.91 184.32 157.77 182.14 127.4ZM207.07 343.84L248.91 343.84L248.91 344.71C248.91 351.87 254.71 357.67 261.87 357.67C269.03 357.67 274.84 351.87 274.84 344.71L274.84 316.2L290.39 316.2L290.39 330.89C290.39 338.04 296.2 343.84 303.36 343.84C310.52 343.84 316.32 338.04 316.32 330.89L316.32 316.2L331.88 316.2L331.88 344.71C331.88 351.87 337.68 357.67 344.84 357.67C352 357.67 357.81 351.87 357.81 344.71C357.81 336.61 364.4 330.02 372.5 330.02C380.6 330.02 387.19 336.61 387.19 344.71C387.19 351.87 393 357.67 400.16 357.67C407.32 357.67 413.12 351.87 413.12 344.71L413.12 316.2L428.68 316.2L428.68 330.89C428.68 338.04 434.48 343.84 441.64 343.84C448.8 343.84 454.6 338.04 454.6 330.89L454.6 316.2L470.16 316.2L470.16 344.71C470.16 351.87 475.97 357.67 483.13 357.67C490.29 357.67 496.09 351.87 496.09 344.71L496.09 343.84L537.93 343.84C527.37 446.05 457.21 525.27 372.5 525.27C287.79 525.27 217.63 446.05 207.07 343.84ZM372.5 551.19C395.56 551.19 417.68 546.24 438.19 537.18L372.5 602.84L306.81 537.18C327.32 546.24 349.44 551.19 372.5 551.19ZM247.89 535.48L260.22 527.26L349.76 616.76C335.86 623.65 315.59 635.64 293.36 655.18C284 636.49 266.49 601.46 242.89 554.25C239.59 547.65 241.74 539.58 247.89 535.48ZM216.12 555.23C216.8 558.84 217.98 562.41 219.7 565.83C229.43 585.31 243.98 614.41 256.1 638.65L276.23 678.86C276.66 679.73 277.09 680.58 277.53 681.39C289.82 714.59 290.97 755.31 290.75 774.08L256.88 774.08L207.73 677.34L231.18 642.18C233.52 638.67 234 634.25 232.48 630.32C230.96 626.38 227.62 623.44 223.53 622.42L175.18 610.33L162.96 572.94L216.12 555.23ZM25.93 759.4L25.93 682.89C25.93 644.37 52.04 610.93 89.43 601.59L140.85 588.74L152.75 625.19C154.14 629.43 157.6 632.66 161.93 633.74L199.4 643.1L181.95 669.27C179.35 673.16 179.05 678.15 181.17 682.33L227.8 774.08L150.38 774.08L150.38 731.75C150.38 724.59 144.58 718.79 137.42 718.79C130.26 718.79 124.45 724.59 124.45 731.75L124.45 774.08L40.62 774.08C32.52 774.08 25.93 767.49 25.93 759.4ZM719.07 759.4C719.07 767.49 712.48 774.08 704.38 774.08L620.54 774.08L620.54 731.75C620.54 724.59 614.74 718.79 607.58 718.79C600.42 718.79 594.62 724.59 594.62 731.75L594.62 774.08L517.2 774.08L563.83 682.33C565.95 678.15 565.65 673.16 563.05 669.27L545.6 643.1L583.07 633.74C587.4 632.66 590.86 629.43 592.25 625.19L604.15 588.74L655.57 601.59C692.96 610.93 719.07 644.36 719.07 682.89L719.07 759.4L719.07 759.4ZM309.89 451.8C325.26 462.25 348.08 468.25 372.5 468.25C396.92 468.25 419.74 462.25 435.11 451.8C441.03 447.78 442.56 439.71 438.53 433.8C434.5 427.88 426.44 426.35 420.52 430.38C409.51 437.86 391.56 442.33 372.5 442.33C353.44 442.33 335.49 437.86 324.48 430.38C318.56 426.35 310.49 427.88 306.47 433.8C302.44 439.71 303.97 447.78 309.89 451.8Z"
     class="shp0"
     id="Shape 1" />
</svg>
