<?xml version="1.0" encoding="UTF-8" standalone="no"?>
<svg
   xmlns:dc="http://purl.org/dc/elements/1.1/"
   xmlns:cc="http://creativecommons.org/ns#"
   xmlns:rdf="http://www.w3.org/1999/02/22-rdf-syntax-ns#"
   xmlns:svg="http://www.w3.org/2000/svg"
   xmlns="http://www.w3.org/2000/svg"
   xmlns:sodipodi="http://sodipodi.sourceforge.net/DTD/sodipodi-0.dtd"
   xmlns:inkscape="http://www.inkscape.org/namespaces/inkscape"
   inkscape:version="1.0 (4035a4fb49, 2020-05-01)"
   sodipodi:docname="parents.svg"
   id="svg5"
   version="1.1"
   height="444"
   width="512"
   viewBox="0 0 512 444">
  <metadata
     id="metadata11">
    <rdf:RDF>
      <cc:Work
         rdf:about="">
        <dc:format>image/svg+xml</dc:format>
        <dc:type
           rdf:resource="http://purl.org/dc/dcmitype/StillImage" />
      </cc:Work>
    </rdf:RDF>
  </metadata>
  <defs
     id="defs9" />
  <sodipodi:namedview
     inkscape:current-layer="svg5"
     inkscape:window-maximized="1"
     inkscape:window-y="0"
     inkscape:window-x="0"
     inkscape:cy="222"
     inkscape:cx="256"
     inkscape:zoom="1.6103604"
     showgrid="false"
     id="namedview7"
     inkscape:window-height="1011"
     inkscape:window-width="1920"
     inkscape:pageshadow="2"
     inkscape:pageopacity="0"
     guidetolerance="10"
     gridtolerance="10"
     objecttolerance="10"
     borderopacity="1"
     bordercolor="#666666"
     pagecolor="#ffffff" />
  <style
     id="style2">
		tspan { white-space:pre }
		.shp0 { fill: #000000 } 
	</style>
  <path
     style="fill:#c11717;fill-opacity:1"
     d="M153.6 290.31C158.32 290.31 162.13 286.48 162.13 281.77L162.13 219.63C167.21 216.66 170.67 211.22 170.67 204.92C170.67 195.51 163.01 187.85 153.6 187.85C144.19 187.85 136.53 195.5 136.53 204.92C136.53 211.22 139.99 216.66 145.06 219.63L145.06 281.77C145.07 286.48 148.88 290.31 153.6 290.31ZM85.66 100.35C87.29 116.76 94.42 131.21 94.76 131.89C102.5 147.37 114.19 170.77 153.6 170.77C193.01 170.77 204.7 147.37 212.44 131.89C212.78 131.21 219.91 116.76 221.54 100.35C226.82 97.45 230.4 91.82 230.4 85.38L230.4 68.31C230.4 62 226.97 56.48 221.87 53.53L221.87 51.23C221.87 22.98 198.9 0 170.67 0L136.53 0C108.3 0 85.33 22.98 85.33 51.23L85.33 53.53C80.23 56.48 76.8 62 76.8 68.31L76.8 85.38C76.8 91.82 80.38 97.45 85.66 100.35ZM93.87 68.31C98.59 68.31 102.4 64.48 102.4 59.77L102.4 51.23C102.4 32.39 117.71 17.08 136.53 17.08L170.67 17.08C189.49 17.08 204.8 32.4 204.8 51.23L204.8 59.77C204.8 64.48 208.61 68.31 213.33 68.31L213.33 85.38C208.61 85.38 204.8 89.21 204.8 93.92C204.8 108.69 197.24 124.11 197.16 124.26C188.28 142.04 180.44 153.69 153.6 153.69C126.75 153.69 118.92 142.04 110.04 124.27C109.96 124.11 102.4 108.69 102.4 93.92C102.4 89.21 98.58 85.38 93.87 85.38L93.87 68.31L93.87 68.31ZM170.67 85.38L179.2 85.38C183.92 85.38 187.73 81.56 187.73 76.85C187.73 72.13 183.92 68.31 179.2 68.31L170.67 68.31C165.95 68.31 162.13 72.13 162.13 76.85C162.13 81.56 165.95 85.38 170.67 85.38ZM128 85.38L136.53 85.38C141.25 85.38 145.07 81.56 145.07 76.85C145.07 72.13 141.25 68.31 136.53 68.31L128 68.31C123.28 68.31 119.47 72.13 119.47 76.85C119.47 81.56 123.28 85.38 128 85.38ZM59.73 290.31C55.01 290.31 51.2 294.13 51.2 298.85L51.2 435.46C51.2 440.17 55.01 444 59.73 444C64.45 444 68.27 440.17 68.27 435.46L68.27 298.85C68.27 294.13 64.45 290.31 59.73 290.31ZM452.83 290.31L452.8 290.31C448.1 290.31 444.28 294.11 444.26 298.81L443.73 435.43C443.72 440.14 447.51 443.98 452.23 444L452.27 444C456.97 444 460.78 440.2 460.8 435.5L461.33 298.88C461.35 294.17 457.55 290.32 452.83 290.31ZM375.02 74.15C373.87 70.66 370.61 68.31 366.93 68.31C363.25 68.31 360 70.66 358.84 74.15C352.43 93.4 333.54 93.91 332.8 93.92C328.08 93.92 324.27 97.75 324.27 102.46L324.27 136.61C324.27 165.13 343.74 204.92 375.47 204.92C407.19 204.92 426.67 165.13 426.67 136.61L426.67 102.46C426.67 97.75 422.85 93.92 418.13 93.92C417.77 93.92 381.44 93.38 375.02 74.15ZM409.6 136.62C409.6 159.82 394.38 187.85 375.47 187.85C356.56 187.85 341.33 159.82 341.33 136.62L341.33 109.96C349.69 108.06 360 103.3 367.58 93.6C379.54 105.56 398.6 109.3 409.6 110.47L409.6 136.62L409.6 136.62ZM491.08 230.55C474.35 213.85 449.23 205.03 418.39 205.03C413.61 205.12 409.62 208.76 409.6 213.54C409.59 215.28 409 256.15 375.47 256.15C341.93 256.15 341.34 215.29 341.33 213.55C341.32 208.84 337.51 205.03 332.8 205.03C328.08 205.03 324.27 208.85 324.27 213.57C324.27 232.66 333.48 267.44 366.93 272.54L366.93 315.92C366.93 320.64 370.75 324.46 375.47 324.46C380.19 324.46 384 320.64 384 315.92L384 272.53C412.8 268.13 423.65 241.77 426.1 222.31C448.73 223.59 466.91 230.54 479.02 242.64C489.29 252.89 494.93 266.78 494.93 281.77L494.93 418.38C494.93 423.09 498.75 426.92 503.47 426.92C508.19 426.92 512 423.09 512 418.38L512 281.77C512 262.22 504.57 244.03 491.08 230.55ZM247.47 290.31C242.75 290.31 238.93 294.13 238.93 298.85L238.93 435.46C238.93 440.17 242.75 444 247.47 444C252.19 444 256 440.17 256 435.46L256 298.85C256 294.13 252.19 290.31 247.47 290.31ZM366.93 34.15L384 34.15C406.46 34.15 433.75 57.22 435.23 77.5L443.76 188.5C444.1 192.98 447.84 196.38 452.26 196.38C452.47 196.38 452.7 196.38 452.92 196.36C457.62 196 461.13 191.89 460.77 187.19L452.24 76.22C449.96 44.93 412.19 17.08 384 17.08L366.93 17.08C335.87 17.08 301.44 46.84 298.69 76.19L290.16 187.19C289.8 191.89 293.32 196 298.01 196.36C302.8 196.67 306.82 193.2 307.17 188.5L315.7 77.64C317.6 57.32 344.89 34.15 366.93 34.15ZM196.82 187.96C192.6 187.89 188.77 190.6 187.91 194.75L153.6 359.49L119.29 194.75C118.42 190.6 114.47 187.97 110.36 187.96C65.53 187.96 31.24 197.56 13.75 215.01C4.63 224.13 0 235.11 0 247.61L0 418.38C0 423.1 3.81 426.92 8.53 426.92C13.25 426.92 17.07 423.1 17.07 418.38L17.07 247.61C17.07 239.69 19.93 232.98 25.81 227.1C39.11 213.82 67.39 205.92 104 205.1L145.23 402.93C145.23 402.95 145.24 402.96 145.24 402.98L145.25 403.05C145.31 403.31 145.48 403.52 145.56 403.77C145.81 404.58 146.07 405.37 146.54 406.06C146.82 406.48 147.23 406.77 147.57 407.13C147.99 407.56 148.35 408.04 148.86 408.38C149.42 408.76 150.08 408.94 150.72 409.17C151.11 409.31 151.43 409.58 151.86 409.66L151.92 409.66C152.46 409.78 153.04 409.67 153.61 409.67C154.17 409.67 154.76 409.78 155.31 409.66L155.34 409.66C155.62 409.6 155.84 409.43 156.1 409.34C156.89 409.09 157.69 408.83 158.37 408.37C158.8 408.08 159.09 407.66 159.46 407.3C159.87 406.9 160.34 406.55 160.66 406.06C161.13 405.39 161.37 404.6 161.62 403.82C161.71 403.55 161.89 403.33 161.95 403.05L161.96 402.98C161.96 402.96 161.97 402.95 161.97 402.93L203.2 205.1C239.82 205.92 268.09 213.83 281.39 227.1C287.27 232.98 290.13 239.69 290.13 247.61L290.13 418.38C290.13 423.1 293.95 426.92 298.67 426.92C303.39 426.92 307.2 423.1 307.2 418.38L307.2 247.61C307.2 235.11 302.57 224.13 293.44 215.02C275.96 197.55 241.66 187.96 196.82 187.96Z"
     class="shp0"
     id="Shape 1" />
</svg>
