<?xml version="1.0" encoding="UTF-8" standalone="no"?>
<svg
   xmlns:dc="http://purl.org/dc/elements/1.1/"
   xmlns:cc="http://creativecommons.org/ns#"
   xmlns:rdf="http://www.w3.org/1999/02/22-rdf-syntax-ns#"
   xmlns:svg="http://www.w3.org/2000/svg"
   xmlns="http://www.w3.org/2000/svg"
   xmlns:sodipodi="http://sodipodi.sourceforge.net/DTD/sodipodi-0.dtd"
   xmlns:inkscape="http://www.inkscape.org/namespaces/inkscape"
   inkscape:version="1.0 (4035a4fb49, 2020-05-01)"
   sodipodi:docname="phone-call.svg"
   id="svg5"
   version="1.1"
   height="54"
   width="56"
   viewBox="0 0 56 54">
  <metadata
     id="metadata11">
    <rdf:RDF>
      <cc:Work
         rdf:about="">
        <dc:format>image/svg+xml</dc:format>
        <dc:type
           rdf:resource="http://purl.org/dc/dcmitype/StillImage" />
      </cc:Work>
    </rdf:RDF>
  </metadata>
  <defs
     id="defs9" />
  <sodipodi:namedview
     inkscape:current-layer="svg5"
     inkscape:window-maximized="1"
     inkscape:window-y="0"
     inkscape:window-x="0"
     inkscape:cy="27"
     inkscape:cx="28"
     inkscape:zoom="13.240741"
     showgrid="false"
     id="namedview7"
     inkscape:window-height="1011"
     inkscape:window-width="1920"
     inkscape:pageshadow="2"
     inkscape:pageopacity="0"
     guidetolerance="10"
     gridtolerance="10"
     objecttolerance="10"
     borderopacity="1"
     bordercolor="#666666"
     pagecolor="#ffffff" />
  <style
     id="style2">
		tspan { white-space:pre }
		.shp0 { fill: #000000 } 
	</style>
  <path
     style="fill:#c10b0b;fill-opacity:1"
     d="M11.9 30.19C5.33 30.19 -0.01 35.53 -0.01 42.1C-0.01 48.66 5.33 54 11.9 54C18.47 54 23.81 48.66 23.81 42.1C23.81 35.53 18.47 30.19 11.9 30.19ZM11.9 52.02C6.43 52.02 1.98 47.57 1.98 42.1C1.98 36.63 6.43 32.18 11.9 32.18C17.37 32.18 21.82 36.63 21.82 42.1C21.82 47.57 17.37 52.02 11.9 52.02ZM17.86 41.11L12.89 41.11L12.89 36.15C12.89 35.6 12.45 35.15 11.9 35.15C11.35 35.15 10.91 35.6 10.91 36.15L10.91 42.1C10.91 42.65 11.35 43.09 11.9 43.09L17.86 43.09C18.4 43.09 18.85 42.65 18.85 42.1C18.85 41.55 18.4 41.11 17.86 41.11ZM55 41.01C53 37.25 46.08 33.16 45.78 32.98C44.51 32.26 43.2 32.04 42.09 32.34C41.25 32.57 40.57 33.1 40.11 33.88C39.09 35.09 37.84 36.5 37.53 36.72C35.18 38.31 33.31 38.12 31.29 36.1L19.89 24.7C17.86 22.67 17.67 20.8 19.26 18.46C19.49 18.15 20.9 16.9 22.11 15.88C22.88 15.42 23.41 14.74 23.64 13.9C23.95 12.79 23.72 11.48 23 10.2C22.82 9.91 18.74 2.99 14.97 1C13.06 -0.01 10.75 0.33 9.22 1.86L6.7 4.38C0.72 10.37 0.52 17.68 6.14 25.53C6.45 25.97 7.07 26.07 7.52 25.76C7.97 25.44 8.07 24.82 7.75 24.37C2.63 17.22 2.75 11.14 8.11 5.78L10.62 3.27C11.53 2.36 12.91 2.15 14.04 2.75C17.31 4.48 21.24 11.14 21.28 11.19C21.72 11.98 21.89 12.79 21.73 13.37C21.63 13.73 21.41 14 21.05 14.2L20.9 14.31C20.06 15.01 18.04 16.72 17.62 17.34C17.01 18.24 16.61 19.12 16.4 19.99C15.69 18.58 15.12 16.95 14.94 15.15C14.88 14.6 14.4 14.21 13.84 14.26C13.3 14.32 12.9 14.81 12.96 15.35C13.68 22.25 19.04 26.74 19.27 26.93C19.3 26.95 19.33 26.96 19.35 26.97L29.88 37.5C29.93 37.54 29.97 37.58 30.01 37.62C30.05 37.68 30.07 37.73 30.12 37.78C30.31 37.97 34.79 42.31 41.63 43.02C41.66 43.03 41.7 43.03 41.73 43.03C42.24 43.03 42.67 42.65 42.72 42.14C42.78 41.59 42.38 41.11 41.83 41.05C39.74 40.83 37.88 40.22 36.33 39.5C37.09 39.27 37.86 38.89 38.64 38.36C39.27 37.94 40.98 35.93 41.68 35.08L41.79 34.93C41.99 34.58 42.26 34.35 42.61 34.26C43.2 34.09 44.01 34.26 44.78 34.7C46.65 35.8 51.8 39.22 53.24 41.94C53.84 43.08 53.63 44.45 52.72 45.36L50.21 47.88C44.86 53.22 38.51 53.28 31.34 48.03C30.89 47.71 30.27 47.8 29.95 48.25C29.63 48.69 29.72 49.31 30.16 49.63C34.07 52.49 37.84 53.92 41.38 53.92C45.07 53.92 48.52 52.37 51.61 49.28L54.13 46.76C55.66 45.23 56.01 42.92 55 41.01Z"
     class="shp0"
     id="Forma 1" />
</svg>
