<?xml version="1.0" encoding="UTF-8" standalone="no"?>
<svg
   xmlns:dc="http://purl.org/dc/elements/1.1/"
   xmlns:cc="http://creativecommons.org/ns#"
   xmlns:rdf="http://www.w3.org/1999/02/22-rdf-syntax-ns#"
   xmlns:svg="http://www.w3.org/2000/svg"
   xmlns="http://www.w3.org/2000/svg"
   xmlns:sodipodi="http://sodipodi.sourceforge.net/DTD/sodipodi-0.dtd"
   xmlns:inkscape="http://www.inkscape.org/namespaces/inkscape"
   inkscape:version="1.0 (4035a4fb49, 2020-05-01)"
   sodipodi:docname="professor-consultation.svg"
   id="svg5"
   version="1.1"
   height="612"
   width="607"
   viewBox="0 0 607 612">
  <metadata
     id="metadata11">
    <rdf:RDF>
      <cc:Work
         rdf:about="">
        <dc:format>image/svg+xml</dc:format>
        <dc:type
           rdf:resource="http://purl.org/dc/dcmitype/StillImage" />
      </cc:Work>
    </rdf:RDF>
  </metadata>
  <defs
     id="defs9" />
  <sodipodi:namedview
     inkscape:current-layer="svg5"
     inkscape:window-maximized="1"
     inkscape:window-y="0"
     inkscape:window-x="0"
     inkscape:cy="306"
     inkscape:cx="303.5"
     inkscape:zoom="1.1683007"
     showgrid="false"
     id="namedview7"
     inkscape:window-height="1011"
     inkscape:window-width="1920"
     inkscape:pageshadow="2"
     inkscape:pageopacity="0"
     guidetolerance="10"
     gridtolerance="10"
     objecttolerance="10"
     borderopacity="1"
     bordercolor="#666666"
     pagecolor="#ffffff" />
  <style
     id="style2">
		tspan { white-space:pre }
		.shp0 { fill: #000000 } 
	</style>
  <path
     style="fill:#c10b0b;fill-opacity:1"
     d="M593.02 612.11C587.42 612.11 587.12 608.76 584.92 603.24L548.73 515.19C530.65 470.67 505.86 445.19 476.93 439.92L461.58 478L479.75 569.47C480.28 574.26 478.33 579 474.57 582.02L451.87 600.25C449.37 602.26 446.25 603.36 443.04 603.36L434.99 603.36C431.78 603.36 428.66 602.26 426.15 600.25L403.46 582.02C399.69 579 397.74 574.26 398.27 569.47L415.45 478L401.09 438.92C372.16 444.19 346.37 470.68 328.27 515.27L293.53 603.31C290.6 610.52 286.38 614 279.16 611.07C271.94 608.15 268.47 599.92 271.4 592.71L307.13 504.66C322.63 466.49 350.13 416.04 410.67 413.58C411.2 413.52 411.74 413.49 412.29 413.49L465.73 413.49C466.28 413.49 466.82 413.52 467.36 413.58C527.9 416.04 555.4 466.49 570.89 504.66L606.11 592.78C609 600.01 605.48 608.21 598.24 611.1C596.53 611.78 594.76 612.11 593.02 612.11ZM422.16 564.89L439.01 580.41L455.86 564.89L442.69 491.41L435.34 491.41L422.16 564.89ZM434.17 463.22L443.86 463.22L448.37 441.69L429.66 441.69L434.17 463.22ZM13.99 612.11C12.23 612.11 10.43 611.78 8.69 611.07C1.48 608.15 -2 599.92 0.93 592.71L36.13 505.97C51.81 467.35 79.93 416.02 142.9 416.02L189.6 416.02C223.54 416.02 251.48 431.11 272.64 460.87C272.99 461.36 274.59 463.54 276.54 466.19C283.28 475.37 285.07 477.83 285.66 478.72C289.96 485.22 288.17 493.97 281.67 498.26C275.2 502.54 266.5 500.79 262.19 494.36C261.43 493.27 256.47 486.51 253.8 482.87C251.7 480.01 249.97 477.66 249.64 477.19C239.88 463.46 228.97 454.21 216.28 449.08L177.65 502.01C174.99 505.64 170.76 507.8 166.25 507.8C161.75 507.8 157.52 505.64 154.86 502.01L116.23 445.09C94.21 454.01 73.3 479.54 58.27 516.57L23.07 603.31C20.84 608.79 19.56 612.11 13.99 612.11ZM142.59 444.22L166.25 474.78L189.92 444.22L142.59 444.22ZM223.14 612.11L73.15 612.11C65.36 612.11 59.05 605.79 59.05 598.01C59.05 590.22 65.36 586.91 73.15 586.91L223.14 586.91C230.93 586.91 237.24 590.22 237.24 598.01C237.24 605.79 230.93 612.11 223.14 612.11ZM503.15 509.49C495.36 509.49 489.04 503.18 489.04 495.39L489.04 493.63C489.04 485.84 495.36 479.53 503.15 479.53C510.94 479.53 517.25 485.84 517.25 493.63L517.25 495.39C517.25 503.18 510.94 509.49 503.15 509.49ZM166.25 395.33C126.8 395.33 94.69 363.24 94.69 323.79C94.69 291.3 116.47 263.8 146.2 255.11C146.35 255.06 146.49 255.02 146.64 254.98C151.35 253.64 156.19 252.79 161.09 252.44L161.1 252.44C161.12 252.43 161.14 252.43 161.17 252.43C161.2 252.43 161.22 252.42 161.25 252.42C161.28 252.42 161.31 252.42 161.34 252.42C161.37 252.42 161.39 252.42 161.41 252.41C161.45 252.41 161.48 252.41 161.5 252.41C161.53 252.4 161.55 252.4 161.58 252.4C161.63 252.4 161.68 252.4 161.74 252.39L161.74 252.39C161.97 252.38 162.2 252.36 162.44 252.35L162.44 252.35C162.52 252.35 162.59 252.34 162.67 252.34C162.69 252.34 162.77 252.33 162.82 252.33C162.84 252.33 162.87 252.33 162.89 252.33C162.92 252.32 162.95 252.33 162.98 252.32C163.01 252.32 163.02 252.32 163.05 252.32C163.07 252.32 163.09 252.32 163.11 252.32C163.14 252.31 163.17 252.32 163.19 252.32C163.22 252.31 163.24 252.31 163.27 252.31C163.29 252.31 163.31 252.31 163.34 252.31C163.39 252.3 163.45 252.32 163.5 252.3C164.37 252.27 165.25 252.25 166.13 252.25C166.15 252.25 166.17 252.25 166.19 252.25C166.21 252.25 166.23 252.25 166.25 252.25C166.26 252.25 166.26 252.25 166.26 252.25C166.33 252.25 166.4 252.25 166.47 252.25L166.47 252.25C166.51 252.25 166.55 252.25 166.58 252.25C166.61 252.25 166.66 252.25 166.69 252.25C166.73 252.25 166.78 252.25 166.81 252.25C166.83 252.25 166.84 252.25 166.86 252.25C201.93 252.54 231.17 277.77 236.83 311.91C237.48 315.77 237.82 319.74 237.82 323.79C237.82 363.24 205.71 395.33 166.25 395.33ZM143.89 281.66C133 289.54 116.9 309.35 116.9 323.79C116.9 347.69 142.36 373.32 166.25 374.13C195.52 375.13 211.58 349.16 216.31 330.35C185.67 330.53 154.32 308.87 143.89 281.66ZM168.03 280.48C174.56 295.23 188.99 305.43 205.84 306.12C199.29 291.52 184.89 281.17 168.03 280.48ZM439.01 392.06C399.08 392.06 366.59 359.58 366.59 319.66C366.59 279.74 399.08 247.26 439.01 247.26C443.79 247.26 448.46 247.72 452.99 248.61C453.28 248.66 453.58 248.72 453.87 248.79C486.7 255.66 511.44 284.83 511.44 319.66C511.44 359.58 478.95 392.06 439.01 392.06ZM413.96 279.25C402.39 287.23 391.79 304.58 391.79 319.66C391.79 320.65 389.83 321.64 389.9 322.63C391.66 345.86 415.62 366.87 439.01 366.87C463.4 366.87 487.23 344.04 487.23 319.66C487.23 301.52 472.25 282.9 456.58 276.09C450.66 283.71 443.27 293.1 434.77 297.86C427.98 301.67 419.39 299.26 415.57 292.47C413.94 289.56 413.45 282.31 413.96 279.25ZM104.94 244.66C102.48 244.66 100.02 244.01 97.82 242.72C93.5 240.19 90.84 235.56 90.84 230.56L90.84 103.53C90.84 78.84 110.94 58.75 135.64 58.75L185.67 58.75C193.46 58.75 199.77 65.06 199.77 72.85C199.77 80.63 193.46 81.95 185.67 81.95L135.64 81.95C126.49 81.95 115.05 94.38 115.05 103.53L116.05 210.5L138.47 198.62C140.57 197.44 142.95 196.82 145.36 196.82L267.74 196.82C275.53 196.82 281.84 202.13 281.84 209.92C281.84 217.71 275.53 222.02 267.74 222.02L149.04 222.02L111.84 242.86C109.7 244.06 107.32 244.66 104.94 244.66ZM439.09 215.45C435.2 215.45 431.39 213.84 428.66 210.86L385.25 163.27L271.22 163.27C246.52 163.27 226.42 143.18 226.42 118.49L226.42 44.78C226.42 20.09 246.52 0 271.22 0L408.39 0C433.09 0 453.19 20.09 453.19 44.78L453.19 201.36C453.19 207.18 449.61 212.4 444.18 214.5C442.52 215.14 440.8 215.45 439.09 215.45ZM271.22 23.2C262.07 23.2 250.63 35.64 250.63 44.78L250.63 121.49C250.63 130.63 262.07 138.07 271.22 138.07L391.48 138.07C395.44 138.07 399.23 139.74 401.9 142.67L428.98 171.97L427.98 44.78C427.98 35.64 417.54 23.2 408.39 23.2L271.22 23.2ZM182.85 134.24L157.26 134.24C149.47 134.24 143.16 129.93 143.16 122.14C143.16 114.36 149.47 112.04 157.26 112.04L182.85 112.04C190.64 112.04 196.95 114.36 196.95 122.14C196.95 129.93 190.64 134.24 182.85 134.24ZM383.76 78.31L325.55 78.31C317.76 78.31 311.45 74 311.45 66.22C311.45 58.43 317.76 54.12 325.55 54.12L383.76 54.12C391.55 54.12 397.87 58.43 397.87 66.22C397.87 74 391.55 78.31 383.76 78.31Z"
     class="shp0"
     id="Forma 1" />
</svg>
