<?xml version="1.0" encoding="UTF-8" standalone="no"?>
<svg
   xmlns:dc="http://purl.org/dc/elements/1.1/"
   xmlns:cc="http://creativecommons.org/ns#"
   xmlns:rdf="http://www.w3.org/1999/02/22-rdf-syntax-ns#"
   xmlns:svg="http://www.w3.org/2000/svg"
   xmlns="http://www.w3.org/2000/svg"
   xmlns:sodipodi="http://sodipodi.sourceforge.net/DTD/sodipodi-0.dtd"
   xmlns:inkscape="http://www.inkscape.org/namespaces/inkscape"
   inkscape:version="1.0 (4035a4fb49, 2020-05-01)"
   sodipodi:docname="reviews-play.svg"
   id="svg5"
   version="1.1"
   height="30"
   width="30"
   viewBox="0 0 30 30">
  <metadata
     id="metadata11">
    <rdf:RDF>
      <cc:Work
         rdf:about="">
        <dc:format>image/svg+xml</dc:format>
        <dc:type
           rdf:resource="http://purl.org/dc/dcmitype/StillImage" />
      </cc:Work>
    </rdf:RDF>
  </metadata>
  <defs
     id="defs9" />
  <sodipodi:namedview
     inkscape:current-layer="svg5"
     inkscape:window-maximized="1"
     inkscape:window-y="0"
     inkscape:window-x="0"
     inkscape:cy="15"
     inkscape:cx="15"
     inkscape:zoom="23.833333"
     showgrid="false"
     id="namedview7"
     inkscape:window-height="1011"
     inkscape:window-width="1920"
     inkscape:pageshadow="2"
     inkscape:pageopacity="0"
     guidetolerance="10"
     gridtolerance="10"
     objecttolerance="10"
     borderopacity="1"
     bordercolor="#666666"
     pagecolor="#ffffff" />
  <style
     id="style2">
		tspan { white-space:pre }
		.shp0 { fill: #000000 } 
	</style>
  <path
     style="fill:#ffffff;fill-opacity:1"
     d="M 19.99,14.43 13.75,9.9 C 13.52,9.73 13.21,9.71 12.96,9.83 12.71,9.96 12.55,10.22 12.55,10.5 v 9.07 c 0,0.29 0.16,0.55 0.41,0.67 0.11,0.06 0.23,0.08 0.34,0.08 0.16,0 0.31,-0.04 0.45,-0.14 l 6.24,-4.53 c 0.19,-0.15 0.31,-0.37 0.31,-0.61 0,-0.24 -0.12,-0.47 -0.31,-0.61 z M 15.03,0 C 6.73,0 0,6.72 0,15.02 c 0,8.3 6.73,15.02 15.03,15.02 8.3,0 15.03,-6.72 15.03,-15.02 C 30.06,6.72 23.33,0 15.03,0 Z m 0,27.54 C 8.12,27.54 2.51,21.94 2.51,15.02 2.51,8.11 8.12,2.5 15.03,2.5 c 6.91,0 12.51,5.61 12.51,12.52 0.01,6.92 -5.6,12.52 -12.51,12.52 z"
     class="shp0"
     id="Forma 1" />
</svg>
