<?xml version="1.0" encoding="UTF-8" standalone="no"?>
<svg
   xmlns:dc="http://purl.org/dc/elements/1.1/"
   xmlns:cc="http://creativecommons.org/ns#"
   xmlns:rdf="http://www.w3.org/1999/02/22-rdf-syntax-ns#"
   xmlns:svg="http://www.w3.org/2000/svg"
   xmlns="http://www.w3.org/2000/svg"
   xmlns:sodipodi="http://sodipodi.sourceforge.net/DTD/sodipodi-0.dtd"
   xmlns:inkscape="http://www.inkscape.org/namespaces/inkscape"
   inkscape:version="1.0 (4035a4fb49, 2020-05-01)"
   sodipodi:docname="tactics.svg"
   id="svg5"
   version="1.1"
   height="612"
   width="537"
   viewBox="0 0 537 612">
  <metadata
     id="metadata11">
    <rdf:RDF>
      <cc:Work
         rdf:about="">
        <dc:format>image/svg+xml</dc:format>
        <dc:type
           rdf:resource="http://purl.org/dc/dcmitype/StillImage" />
      </cc:Work>
    </rdf:RDF>
  </metadata>
  <defs
     id="defs9" />
  <sodipodi:namedview
     inkscape:current-layer="svg5"
     inkscape:window-maximized="1"
     inkscape:window-y="0"
     inkscape:window-x="0"
     inkscape:cy="306"
     inkscape:cx="268.5"
     inkscape:zoom="1.1683007"
     showgrid="false"
     id="namedview7"
     inkscape:window-height="1011"
     inkscape:window-width="1920"
     inkscape:pageshadow="2"
     inkscape:pageopacity="0"
     guidetolerance="10"
     gridtolerance="10"
     objecttolerance="10"
     borderopacity="1"
     bordercolor="#666666"
     pagecolor="#ffffff" />
  <style
     id="style2">
		tspan { white-space:pre }
		.shp0 { fill: #000000 } 
	</style>
  <path
     style="fill:#c10b0b;fill-opacity:1"
     d="M505.37 0L268.5 0C251.06 0 236.87 14.18 236.87 31.61L236.87 139.89L176.46 139.89C152.61 139.89 130.49 149.45 114.17 166.82C97.84 184.18 89.67 206.84 91.16 230.62L96.91 322.53C97.01 362.3 113.78 397.87 139.97 421.37L139.97 437.45L122.23 464.05L39.17 486.69C16.11 492.97 0 514.05 0 537.94L0 580.39C0 597.82 14.19 612 31.63 612L397.7 612C415.14 612 429.33 597.82 429.33 580.39L429.33 537.94C429.33 514.05 413.22 492.97 390.16 486.69L307.1 464.05L289.36 437.45L289.36 421.37C315.56 397.87 332.32 362.3 332.42 322.53L333.84 299.95L505.37 299.95C522.81 299.95 537 285.77 537 268.34L537 31.61C537 14.18 522.81 0 505.37 0ZM128.88 180.63C141.35 167.37 158.25 160.06 176.46 160.06L252.87 160.06C271.08 160.06 287.98 167.37 300.45 180.63C312.92 193.89 319.16 211.2 318.02 229.37L316.12 259.73C307.58 242.38 298.73 230.8 298.01 229.88C295.25 226.31 290.44 225.01 286.24 226.71C235.54 247.23 140.25 247.49 139.3 247.49C137.03 247.49 134.84 248.25 133.06 249.65C132.36 250.2 123.03 257.69 113.96 271.82L111.31 229.37C110.17 211.2 116.41 193.89 128.88 180.63ZM243.34 508.7C243.34 508.7 243.34 508.69 243.34 508.7L229.62 494.99L277.1 455.44L288.67 472.79L256.62 520.83C256.57 520.91 256.45 521.1 256.13 521.13C255.81 521.16 255.65 521 255.59 520.94L243.34 508.7ZM185.99 508.7L173.75 520.94C173.68 521 173.52 521.16 173.2 521.13C172.89 521.1 172.76 520.91 172.71 520.83L140.66 472.79L152.23 455.44L199.71 494.98L186 508.69C186 508.69 185.99 508.7 185.99 508.7ZM214.67 558.2C215.51 558.2 216.35 558.15 217.18 558.09L224.1 591.82L205.23 591.82L212.16 558.09C212.98 558.15 213.82 558.2 214.67 558.2ZM226.11 526.59C226.11 532.89 220.97 538.02 214.67 538.02C208.36 538.02 203.23 532.89 203.23 526.59L203.23 520.01L214.67 508.57L226.11 520.01L226.11 526.59ZM214.67 481.18L160.92 436.42C177.05 445.48 195.32 450.59 214.67 450.59C234.01 450.59 252.28 445.48 268.41 436.42L214.67 481.18ZM20.19 580.39L20.19 537.94C20.19 523.12 30.18 510.05 44.49 506.15L124.17 484.43L155.91 532.02C159.39 537.24 164.97 540.59 171.22 541.21C171.91 541.27 172.6 541.31 173.29 541.31C177.51 541.31 181.59 540.03 185.04 537.66C186.8 542.34 189.63 546.49 193.24 549.82L184.62 591.82L95.56 591.82L95.56 558.87C95.56 553.3 91.04 548.78 85.46 548.78C79.89 548.78 75.37 553.3 75.37 558.87L75.37 591.82L31.63 591.82C25.32 591.82 20.19 586.7 20.19 580.39ZM409.14 537.94L409.14 580.39C409.14 586.7 404.01 591.82 397.7 591.82L353.96 591.82L353.96 558.87C353.96 553.3 349.44 548.78 343.87 548.78C338.29 548.78 333.77 553.3 333.77 558.87L333.77 591.82L244.71 591.82L236.09 549.82C239.7 546.49 242.53 542.34 244.29 537.66C247.74 540.03 251.82 541.31 256.04 541.31C256.73 541.31 257.42 541.28 258.11 541.21C264.36 540.59 269.94 537.24 273.42 532.03L305.16 484.43L384.85 506.15C399.15 510.05 409.14 523.12 409.14 537.94ZM214.67 430.42C161 430.42 117.32 382.09 117.1 322.59C120.13 292.53 136.94 273.69 143.19 267.63C161.35 267.4 236.86 265.41 286.27 248.24C294.57 260.75 312.24 291.02 312.24 322.14C312.24 381.84 268.47 430.42 214.67 430.42ZM516.81 268.34C516.81 274.64 511.68 279.77 505.37 279.77L335.1 279.77L338.17 230.62C338.53 224.86 338.31 219.16 337.56 213.59L462.98 88.24L462.98 117.69C462.98 123.26 467.5 127.78 473.07 127.78C478.65 127.78 483.16 123.26 483.16 117.69L483.16 63.89C483.16 58.32 478.65 53.8 473.07 53.8L419.24 53.8C413.66 53.8 409.14 58.32 409.14 63.89C409.14 69.46 413.66 73.98 419.24 73.98L448.7 73.98L331.32 191.29C327.45 182.4 322.04 174.13 315.16 166.82C299.8 150.47 279.3 141.04 257.06 139.99L257.06 31.61C257.06 25.3 262.19 20.18 268.5 20.18L505.37 20.18C511.68 20.18 516.81 25.3 516.81 31.61L516.81 268.34ZM361.77 56.76C357.83 52.82 351.44 52.82 347.5 56.76L327.72 76.52L307.94 56.76C304 52.82 297.6 52.82 293.66 56.76C289.72 60.7 289.72 67.08 293.66 71.02L313.44 90.79L293.66 110.56C289.72 114.5 289.72 120.89 293.66 124.83C295.63 126.8 298.22 127.78 300.8 127.78C303.38 127.78 305.97 126.8 307.94 124.83L327.72 105.06L347.5 124.83C349.47 126.8 352.05 127.78 354.64 127.78C357.22 127.78 359.8 126.8 361.77 124.83C365.71 120.89 365.71 114.5 361.77 110.56L341.99 90.79L361.77 71.02C365.71 67.08 365.71 60.7 361.77 56.76ZM480.21 175.12C476.27 171.18 469.87 171.18 465.93 175.12L446.15 194.89L426.37 175.12C422.43 171.18 416.04 171.18 412.1 175.12C408.16 179.06 408.16 185.45 412.1 189.39L431.88 209.15L412.1 228.92C408.16 232.86 408.16 239.25 412.1 243.19C414.07 245.16 416.65 246.14 419.24 246.14C421.82 246.14 424.4 245.16 426.37 243.19L446.15 223.42L465.93 243.19C467.9 245.16 470.49 246.14 473.07 246.14C475.65 246.14 478.24 245.16 480.21 243.19C484.15 239.25 484.15 232.86 480.21 228.92L460.43 209.16L480.21 189.39C484.15 185.45 484.15 179.06 480.21 175.12Z"
     class="shp0"
     id="Forma 1" />
</svg>
