<?xml version="1.0" encoding="UTF-8" standalone="no"?>
<svg
   xmlns:dc="http://purl.org/dc/elements/1.1/"
   xmlns:cc="http://creativecommons.org/ns#"
   xmlns:rdf="http://www.w3.org/1999/02/22-rdf-syntax-ns#"
   xmlns:svg="http://www.w3.org/2000/svg"
   xmlns="http://www.w3.org/2000/svg"
   xmlns:sodipodi="http://sodipodi.sourceforge.net/DTD/sodipodi-0.dtd"
   xmlns:inkscape="http://www.inkscape.org/namespaces/inkscape"
   inkscape:version="1.0 (4035a4fb49, 2020-05-01)"
   sodipodi:docname="woman.svg"
   id="svg5"
   version="1.1"
   height="612"
   width="485"
   viewBox="0 0 485 612">
  <metadata
     id="metadata11">
    <rdf:RDF>
      <cc:Work
         rdf:about="">
        <dc:format>image/svg+xml</dc:format>
        <dc:type
           rdf:resource="http://purl.org/dc/dcmitype/StillImage" />
      </cc:Work>
    </rdf:RDF>
  </metadata>
  <defs
     id="defs9" />
  <sodipodi:namedview
     inkscape:current-layer="svg5"
     inkscape:window-maximized="1"
     inkscape:window-y="0"
     inkscape:window-x="0"
     inkscape:cy="306"
     inkscape:cx="242.5"
     inkscape:zoom="1.1683007"
     showgrid="false"
     id="namedview7"
     inkscape:window-height="1011"
     inkscape:window-width="1920"
     inkscape:pageshadow="2"
     inkscape:pageopacity="0"
     guidetolerance="10"
     gridtolerance="10"
     objecttolerance="10"
     borderopacity="1"
     bordercolor="#666666"
     pagecolor="#ffffff" />
  <style
     id="style2">
		tspan { white-space:pre }
		.shp0 { fill: #000000 } 
	</style>
  <path
     style="fill:#c11717;fill-opacity:1"
     d="M429.44 442.99L381.74 431.06C387.48 428.76 393.64 426.2 399.82 423.45C437.3 406.79 453.28 393.8 453.28 380.02C453.28 239.79 434.83 141.98 396.87 81.01C362.94 26.5 312.44 0 242.5 0C172.56 0 122.06 26.5 88.13 81.01C50.17 141.98 31.72 239.79 31.72 380.02C31.72 393.8 47.7 406.79 85.18 423.45C91.36 426.2 97.52 428.76 103.26 431.06L55.56 442.99C22.85 451.16 0 480.43 0 514.16L0 580.94C0 598.07 13.93 612 31.06 612L453.94 612C471.07 612 485 598.07 485 580.94L485 514.16C485 480.43 462.15 451.16 429.44 442.99ZM157.45 437.94C176.01 433.3 188.98 416.69 188.98 397.55L188.98 388.28C205.58 396.17 223.63 400.51 242.5 400.51C260.99 400.51 279.12 396.29 296.02 388.28L296.02 397.55C296.02 416.69 308.99 433.3 327.55 437.95L340.01 441.06C315.65 470.93 279.29 504.48 242.5 517.59C205.71 504.48 169.35 470.93 144.99 441.06L157.45 437.94ZM242.5 380.68C172.18 380.68 114.97 309.23 114.97 221.4L114.97 215.1C170.07 164.82 277.46 158 319.64 157.36C327.77 184.26 342.35 219.75 367.76 250.26C362.48 286.07 347.42 318.71 325.09 342.56C302.08 367.14 272.75 380.68 242.5 380.68ZM51.54 379.63C51.57 243.43 69.05 149.16 104.95 91.49C135.39 42.6 179.1 19.83 242.5 19.83C305.9 19.83 349.61 42.6 380.05 91.49C415.95 149.16 433.43 243.42 433.46 379.63C432.87 380.93 427.64 389.68 389.14 406.49C371.55 414.16 354.27 420.32 347.78 422.57L332.36 418.71C322.64 416.28 315.84 407.58 315.84 397.55L315.84 376.74C324.24 370.88 332.19 363.98 339.56 356.11C365.62 328.28 382.82 290.04 388.01 248.43C388.36 245.63 387.5 242.82 385.65 240.69C358.4 209.42 343.95 171.25 336.63 144.74C335.44 140.44 331.54 137.47 327.08 137.47C304.88 137.47 260.8 138.95 214.89 148.84C163.33 159.96 124.05 178.43 98.14 203.74C96.23 205.6 95.15 208.16 95.15 210.83L95.15 221.4C95.15 287.73 124.96 345.75 169.16 376.7L169.16 397.55C169.16 407.57 162.36 416.28 152.64 418.71L137.22 422.57C130.75 420.32 113.55 414.2 95.97 406.54C57.37 389.7 52.13 380.93 51.54 379.63ZM465.18 580.94C465.18 587.13 460.14 592.17 453.94 592.17L400.42 592.17L400.42 543.38C400.42 537.9 395.98 533.46 390.51 533.46C385.04 533.46 380.6 537.9 380.6 543.38L380.6 592.17L104.4 592.17L104.4 543.38C104.4 537.9 99.96 533.46 94.49 533.46C89.02 533.46 84.58 537.9 84.58 543.38L84.58 592.17L31.06 592.17C24.86 592.17 19.82 587.13 19.82 580.94L19.82 514.16C19.82 489.55 36.49 468.19 60.36 462.22L123.86 446.34C163.76 498.66 209.26 527.69 239.44 537.49C240.43 537.82 241.47 537.98 242.5 537.98C243.53 537.98 244.57 537.82 245.56 537.49C275.73 527.69 321.24 498.66 361.14 446.34L424.63 462.22C448.51 468.19 465.18 489.55 465.18 514.16L465.18 580.94Z"
     class="shp0"
     id="Forma 1" />
</svg>
