<?xml version="1.0" encoding="UTF-8" standalone="no"?>
<svg
   xmlns:dc="http://purl.org/dc/elements/1.1/"
   xmlns:cc="http://creativecommons.org/ns#"
   xmlns:rdf="http://www.w3.org/1999/02/22-rdf-syntax-ns#"
   xmlns:svg="http://www.w3.org/2000/svg"
   xmlns="http://www.w3.org/2000/svg"
   xmlns:sodipodi="http://sodipodi.sourceforge.net/DTD/sodipodi-0.dtd"
   xmlns:inkscape="http://www.inkscape.org/namespaces/inkscape"
   inkscape:version="1.0 (4035a4fb49, 2020-05-01)"
   sodipodi:docname="work-communication.svg"
   id="svg5"
   version="1.1"
   height="612"
   width="612"
   viewBox="0 0 612 612">
  <metadata
     id="metadata11">
    <rdf:RDF>
      <cc:Work
         rdf:about="">
        <dc:format>image/svg+xml</dc:format>
        <dc:type
           rdf:resource="http://purl.org/dc/dcmitype/StillImage" />
      </cc:Work>
    </rdf:RDF>
  </metadata>
  <defs
     id="defs9" />
  <sodipodi:namedview
     inkscape:current-layer="svg5"
     inkscape:window-maximized="1"
     inkscape:window-y="0"
     inkscape:window-x="0"
     inkscape:cy="306"
     inkscape:cx="306"
     inkscape:zoom="1.1683007"
     showgrid="false"
     id="namedview7"
     inkscape:window-height="1011"
     inkscape:window-width="1920"
     inkscape:pageshadow="2"
     inkscape:pageopacity="0"
     guidetolerance="10"
     gridtolerance="10"
     objecttolerance="10"
     borderopacity="1"
     bordercolor="#666666"
     pagecolor="#ffffff" />
  <style
     id="style2">
		tspan { white-space:pre }
		.shp0 { fill: #000000 } 
	</style>
  <path
     style="fill:#c10b0b;fill-opacity:1"
     d="M516.44 263.97C551.66 263.97 580.3 235.33 580.3 200.13C580.3 164.93 551.66 136.29 516.44 136.29C481.23 136.29 452.58 164.93 452.58 200.13C452.58 235.33 481.23 263.97 516.44 263.97ZM516.44 162.91C534.77 162.91 553.67 181.81 553.67 200.13C553.67 218.45 534.76 237.35 516.44 237.35C498.12 237.35 479.21 218.45 479.21 200.13C479.21 198.88 479.28 197.62 479.41 196.37C481.26 179.31 499.37 162.91 516.44 162.91ZM95.56 263.97C130.77 263.97 159.42 235.33 159.42 200.13C159.42 164.93 130.77 136.29 95.56 136.29C60.35 136.29 31.7 164.93 31.7 200.13C31.7 235.33 60.35 263.97 95.56 263.97ZM95.56 162.91C113.88 162.91 132.79 181.81 132.79 200.13C132.79 218.45 113.88 236.35 95.56 236.35C77.24 236.35 58.33 218.45 58.33 200.13C58.33 181.81 77.24 162.91 95.56 162.91ZM153.88 500.15C153.88 508.61 147.02 515.46 138.56 515.46L90.26 515.46L90.26 585.37L109.33 585.37C117.79 585.37 124.64 588.22 124.64 596.68C124.64 605.13 117.79 611.99 109.33 611.99L77.27 611.99C77.16 611.99 77.05 611.99 76.94 611.99C76.83 611.99 76.72 611.99 76.62 611.99L44.55 611.99C36.09 611.99 29.24 605.13 29.24 596.68C29.24 588.22 36.09 585.37 44.55 585.37L63.63 585.37L63.63 515.46L15.68 515.46C12.61 515.51 9.64 514.67 7.18 513.13C2.87 510.42 0 505.62 0 500.15C0 500 0 499.85 0.01 499.7L0.01 354.52C0.01 346.06 6.86 339.21 15.32 339.21C23.78 339.21 27.64 346.06 27.64 354.52L27.64 488.84L138.56 488.84C147.02 488.84 153.88 491.7 153.88 500.15ZM540.44 459.16L437.35 459.48L398.22 600.5C398 601.34 397.71 602.16 397.36 602.94C394.89 608.48 389.36 612 383.39 612C383.23 612 383.06 611.99 382.9 611.99L343.1 611.99C334.64 611.99 327.78 605.14 327.78 596.68C327.78 588.22 334.64 589.37 343.1 589.37L375.74 589.37L413.93 444.12C415.77 437.51 421.78 432.92 428.64 432.9L530.12 432.59L529.12 308.64L518.17 308.64L465.02 382.68L480.76 382.68C489.22 382.68 501.08 389.53 501.08 397.99C501.08 406.44 494.22 410.3 485.76 410.3L440.6 410.3C440.48 410.3 440.35 410.3 440.22 410.3L382.76 410.3C376.28 410.3 370.51 406.23 368.33 400.14L334.17 304.7C331.33 296.74 335.48 287.98 343.45 285.14C351.41 282.3 356.17 286.44 359.02 294.41L390.55 382.68L432.5 382.68L497.74 290.49C500.61 286.44 505.27 284.03 510.24 284.03L540.44 284.03C548.9 284.03 555.76 290.88 555.76 299.34C555.76 299.49 555.76 299.64 555.75 299.79L555.75 443.85C555.75 447.92 554.16 451.62 551.57 454.36C551.57 454.36 551.57 454.36 551.57 454.36C551.57 454.37 551.56 454.37 551.56 454.37C551.56 454.37 551.56 454.38 551.55 454.38C551.55 454.38 551.55 454.38 551.55 454.39C551.54 454.39 551.54 454.39 551.54 454.39C551.53 454.4 551.53 454.4 551.53 454.41C551.52 454.41 551.52 454.41 551.52 454.41C551.52 454.41 551.51 454.42 551.51 454.42C551.51 454.42 551.51 454.42 551.5 454.43C551.5 454.43 551.5 454.43 551.5 454.43C551.5 454.44 551.49 454.44 551.49 454.44C551.48 454.45 551.48 454.45 551.47 454.46C551.47 454.46 551.47 454.46 551.47 454.46C551.46 454.47 551.46 454.47 551.45 454.48C549.84 456.14 547.86 457.45 545.63 458.25L545.63 458.25C545.62 458.25 545.62 458.26 545.61 458.26C545.6 458.26 545.6 458.26 545.59 458.26C545.58 458.26 545.58 458.27 545.57 458.27C545.57 458.27 545.57 458.27 545.57 458.27C543.97 458.85 542.24 459.16 540.44 459.16ZM612 500.15C612 505.62 609.13 510.42 604.82 513.13C602.36 514.67 599.39 515.52 596.32 515.46L548.38 515.46L548.38 584.37L567.45 584.37C575.91 584.37 582.77 588.22 582.77 596.68C582.77 605.13 575.91 611.99 567.45 611.99L535.39 611.99C535.28 611.99 535.17 611.99 535.06 611.99C534.96 611.99 534.85 611.99 534.74 611.99L502.67 611.99C494.21 611.99 487.36 605.13 487.36 596.68C487.36 588.22 494.21 584.37 502.67 584.37L521.75 584.37L521.75 515.46L473.44 515.46C464.98 515.46 458.12 508.61 458.12 500.15C458.12 491.7 464.98 488.84 473.44 488.84L586.36 488.84L586.36 354.52C586.36 346.06 588.22 339.21 596.68 339.21C605.14 339.21 611.99 346.06 611.99 354.52L611.99 499.7C612 499.85 612 500 612 500.15ZM284.22 596.68C284.22 605.14 277.36 611.99 268.9 611.99L229.11 611.99C228.94 612 228.78 612 228.62 612C222.64 612 217.11 608.48 214.64 602.92C214.29 602.15 214.01 601.34 213.79 600.51L174.65 459.49L71.56 459.16C69.76 459.16 68.03 458.85 66.43 458.28C66.42 458.28 66.41 458.27 66.41 458.27C66.4 458.27 66.4 458.27 66.4 458.27C66.39 458.27 66.39 458.27 66.38 458.26C66.38 458.26 66.37 458.26 66.36 458.26L66.36 458.26C64.13 457.45 62.15 456.15 60.54 454.48C60.53 454.48 60.53 454.47 60.52 454.47C60.52 454.47 60.52 454.47 60.52 454.47C60.52 454.46 60.51 454.46 60.51 454.45C60.5 454.45 60.5 454.44 60.49 454.44C60.49 454.44 60.49 454.44 60.49 454.43C60.49 454.43 60.48 454.43 60.48 454.43C60.48 454.42 60.48 454.42 60.47 454.42C60.47 454.41 60.47 454.41 60.47 454.41C60.46 454.41 60.46 454.4 60.46 454.4C60.45 454.4 60.45 454.4 60.45 454.39C60.45 454.39 60.44 454.39 60.44 454.39C60.44 454.38 60.44 454.38 60.43 454.38C60.43 454.38 60.43 454.37 60.42 454.37C60.42 454.37 60.42 454.37 60.42 454.37C57.83 451.62 56.24 447.93 56.24 443.86L56.24 299.35L56.24 299.34C56.24 290.89 63.1 284.03 71.56 284.03L101.76 284.03C106.73 284.03 111.39 286.45 114.26 290.5L179.5 382.69L221.45 382.69L252.99 294.42C255.83 286.45 260.6 282.3 268.56 285.15C276.53 287.99 280.68 296.75 277.83 304.71L246.67 398.15C244.49 404.24 238.72 408.31 232.24 408.31L171.78 408.31C171.65 408.31 171.52 408.31 171.39 408.31L126.24 408.31C117.79 408.31 110.93 403.45 110.93 395C110.93 386.54 117.79 382.69 126.24 382.69L141.98 382.69L93.84 314.65L86.88 314.65L86.88 428.59L186.36 428.91C193.22 428.93 199.23 433.52 201.07 440.13L240.27 585.38L268.9 585.38C277.36 585.37 284.22 588.23 284.22 596.68ZM396.08 136.77C399.04 140.02 403.17 141.77 407.4 141.77C409.25 141.77 411.13 141.43 412.93 140.73C418.82 138.45 422.71 132.78 422.71 126.46L422.71 33.52C422.71 15.04 407.67 0 389.18 0L307.75 0C289.26 0 274.22 15.04 274.22 33.52L274.22 77.27C274.22 95.76 289.26 110.79 307.75 110.79L372.37 110.79L396.08 136.77ZM299.85 82.27L299.85 28.52C299.85 26.95 301.18 25.62 302.75 25.62L394.18 25.62C395.72 25.62 397.08 26.97 397.08 28.52L397.08 91.95L395.45 90.17C392.55 86.99 388.44 85.17 384.14 85.17L302.75 85.17C301.18 85.17 299.85 83.84 299.85 82.27ZM304.85 143.94C304.85 152.4 297.99 159.25 289.53 159.25L232.6 159.25L212.1 170.74C209.77 172.04 207.19 172.7 204.61 172.7C201.93 172.7 199.25 172 196.86 170.6C192.17 167.85 189.29 162.82 189.29 157.39L189.29 81.98C189.29 63.5 204.34 48.46 222.83 48.46L240.82 48.46C249.28 48.46 256.13 55.31 256.13 63.77C256.13 72.23 245.28 75.08 236.82 75.08L218.83 75.08C217.25 75.08 215.92 76.41 215.92 77.98L215.92 135.26L217.11 134.59C219.4 133.31 221.98 132.63 224.6 132.63L289.53 132.63C297.99 132.63 304.85 135.49 304.85 143.94Z"
     class="shp0"
     id="Forma 1" />
</svg>
